<svg version="1.1" viewBox="0.0 0.0 387.81889763779526 184.38845144356955" fill="none" stroke="none" stroke-linecap="square" stroke-miterlimit="10" xmlns:xlink="http://www.w3.org/1999/xlink" xmlns="http://www.w3.org/2000/svg"><clipPath id="p.0"><path d="m0 0l387.8189 0l0 184.38846l-387.8189 0l0 -184.38846z" clip-rule="nonzero"/></clipPath><g clip-path="url(#p.0)"><path fill="#000000" fill-opacity="0.0" d="m0 0l387.8189 0l0 184.38846l-387.8189 0z" fill-rule="evenodd"/><path fill="#f4cccc" d="m12.8149605 50.237534l0 0c0 -9.093128 15.874502 -16.46457 35.45669 -16.46457c19.582191 0 35.456696 7.371441 35.456696 16.46457l0 65.85827c0 9.093124 -15.874504 16.464561 -35.456696 16.464561c-19.58219 0 -35.45669 -7.371437 -35.45669 -16.464561z" fill-rule="evenodd"/><path fill="#000000" fill-opacity="0.0" d="m83.72835 50.237534l0 0c0 9.093128 -15.874504 16.46457 -35.456696 16.46457c-19.58219 0 -35.45669 -7.371441 -35.45669 -16.46457" fill-rule="evenodd"/><path fill="#000000" fill-opacity="0.0" d="m12.8149605 50.237534l0 0c0 -9.093128 15.874502 -16.46457 35.45669 -16.46457c19.582191 0 35.456696 7.371441 35.456696 16.46457l0 65.85827c0 9.093124 -15.874504 16.464561 -35.456696 16.464561c-19.58219 0 -35.45669 -7.371437 -35.45669 -16.464561z" fill-rule="evenodd"/><path stroke="#000000" stroke-width="1.0" stroke-linejoin="round" stroke-linecap="butt" d="m83.72835 50.237534l0 0c0 9.093128 -15.874504 16.46457 -35.456696 16.46457c-19.58219 0 -35.45669 -7.371441 -35.45669 -16.46457" fill-rule="evenodd"/><path stroke="#000000" stroke-width="1.0" stroke-linejoin="round" stroke-linecap="butt" d="m12.8149605 50.237534l0 0c0 -9.093128 15.874502 -16.46457 35.45669 -16.46457c19.582191 0 35.456696 7.371441 35.456696 16.46457l0 65.85827c0 9.093124 -15.874504 16.464561 -35.456696 16.464561c-19.58219 0 -35.45669 -7.371437 -35.45669 -16.464561z" fill-rule="evenodd"/><path fill="#000000" d="m30.005312 98.31895l0 -13.359375l4.609377 0q1.546875 0 2.375 0.203125q1.140625 0.25 1.953125 0.953125q1.0625 0.890625 1.578125 2.28125q0.53125 1.390625 0.53125 3.171875q0 1.515625 -0.359375 2.703125q-0.359375 1.171875 -0.921875 1.9375q-0.546875 0.765625 -1.203125 1.21875q-0.65625 0.4375 -1.59375 0.671875q-0.9375 0.21875 -2.140625 0.21875l-4.828127 0zm1.765625 -1.578125l2.859377 0q1.3125 0 2.0625 -0.234375q0.75 -0.25 1.203125 -0.703125q0.625 -0.625 0.96875 -1.6875q0.359375 -1.0625 0.359375 -2.578125q0 -2.09375 -0.6875 -3.21875q-0.6875 -1.125 -1.671875 -1.5q-0.703125 -0.28125 -2.28125 -0.28125l-2.812502 0l0 10.203125zm17.816698 0.390625q-0.921875 0.765625 -1.765625 1.09375q-0.828125 0.3125 -1.796875 0.3125q-1.59375 0 -2.453125 -0.78125q-0.859375 -0.78125 -0.859375 -1.984375q0 -0.71875 0.328125 -1.296875q0.328125 -0.59375 0.84375 -0.9375q0.53125 -0.359375 1.1875 -0.546875q0.46875 -0.125 1.453125 -0.25q1.984375 -0.234375 2.921875 -0.5625q0.015625 -0.34375 0.015625 -0.421875q0 -1.0 -0.46875 -1.421875q-0.625 -0.546875 -1.875 -0.546875q-1.15625 0 -1.703125 0.40625q-0.546875 0.40625 -0.8125 1.421875l-1.609375 -0.21875q0.21875 -1.015625 0.71875 -1.640625q0.5 -0.640625 1.453125 -0.984375q0.953125 -0.34375 2.1875 -0.34375q1.25 0 2.015625 0.296875q0.78125 0.28125 1.140625 0.734375q0.375 0.4375 0.515625 1.109375q0.078125 0.421875 0.078125 1.515625l0 2.1875q0 2.28125 0.109375 2.890625q0.109375 0.59375 0.40625 1.15625l-1.703125 0q-0.265625 -0.515625 -0.328125 -1.1875zm-0.140625 -3.671875q-0.890625 0.375 -2.671875 0.625q-1.015625 0.140625 -1.4375 0.328125q-0.421875 0.1875 -0.65625 0.53125q-0.21875 0.34375 -0.21875 0.78125q0 0.65625 0.5 1.09375q0.5 0.4375 1.453125 0.4375q0.9375 0 1.671875 -0.40625q0.75 -0.421875 1.09375 -1.140625q0.265625 -0.5625 0.265625 -1.640625l0 -0.609375zm7.781967 3.390625l0.234375 1.453125q-0.6875 0.140625 -1.234375 0.140625q-0.890625 0 -1.390625 -0.28125q-0.484375 -0.28125 -0.6875 -0.734375q-0.203125 -0.46875 -0.203125 -1.9375l0 -5.578125l-1.203125 0l0 -1.265625l1.203125 0l0 -2.390625l1.625 -0.984375l0 3.375l1.65625 0l0 1.265625l-1.65625 0l0 5.671875q0 0.6875 0.078125 0.890625q0.09375 0.203125 0.28125 0.328125q0.203125 0.109375 0.578125 0.109375q0.265625 0 0.71875 -0.0625zm7.9176826 0.28125q-0.921875 0.765625 -1.7656288 1.09375q-0.828125 0.3125 -1.796875 0.3125q-1.59375 0 -2.453125 -0.78125q-0.859375 -0.78125 -0.859375 -1.984375q0 -0.71875 0.328125 -1.296875q0.328125 -0.59375 0.84375 -0.9375q0.53125 -0.359375 1.1875 -0.546875q0.46875 -0.125 1.453125 -0.25q1.9843788 -0.234375 2.9218788 -0.5625q0.015625 -0.34375 0.015625 -0.421875q0 -1.0 -0.46875 -1.421875q-0.6250038 -0.546875 -1.8750038 -0.546875q-1.15625 0 -1.703125 0.40625q-0.546875 0.40625 -0.8125 1.421875l-1.609375 -0.21875q0.21875 -1.015625 0.71875 -1.640625q0.5 -0.640625 1.453125 -0.984375q0.953125 -0.34375 2.1875 -0.34375q1.2500038 0 2.0156288 0.296875q0.78125 0.28125 1.140625 0.734375q0.375 0.4375 0.515625 1.109375q0.078125 0.421875 0.078125 1.515625l0 2.1875q0 2.28125 0.109375 2.890625q0.109375 0.59375 0.40625 1.15625l-1.703125 0q-0.265625 -0.515625 -0.328125 -1.1875zm-0.140625 -3.671875q-0.890625 0.375 -2.6718788 0.625q-1.015625 0.140625 -1.4375 0.328125q-0.421875 0.1875 -0.65625 0.53125q-0.21875 0.34375 -0.21875 0.78125q0 0.65625 0.5 1.09375q0.5 0.4375 1.453125 0.4375q0.9375 0 1.671875 -0.40625q0.7500038 -0.421875 1.0937538 -1.140625q0.265625 -0.5625 0.265625 -1.640625l0 -0.609375z" fill-rule="nonzero"/><path fill="#cfe2f3" d="m133.53412 84.62336l47.93701 0l0 47.937004l-47.93701 0z" fill-rule="evenodd"/><path stroke="#000000" stroke-width="1.0" stroke-linejoin="round" stroke-linecap="butt" d="m133.53412 84.62336l47.93701 0l0 47.937004l-47.93701 0z" fill-rule="evenodd"/><path fill="#000000" d="m147.66434 115.51186l0 -13.359375l2.65625 0l3.15625 9.453125q0.4375 1.328125 0.640625 1.984375q0.234375 -0.734375 0.703125 -2.140625l3.203125 -9.296875l2.375 0l0 13.359375l-1.703125 0l0 -11.171875l-3.875 11.171875l-1.59375 0l-3.859375 -11.375l0 11.375l-1.703125 0z" fill-rule="nonzero"/><path fill="#000000" d="m166.45514 122.51186l-1.09375 0l0 -6.96875q-0.40625 0.375 -1.046875 0.75q-0.640625 0.375 -1.140625 0.578125l0 -1.0625q0.90625 -0.4375 1.59375 -1.046875q0.6875 -0.609375 0.96875 -1.1875l0.71875 0l0 8.9375z" fill-rule="nonzero"/><path fill="#cfe2f3" d="m230.30052 84.62336l47.936996 0l0 47.937004l-47.936996 0z" fill-rule="evenodd"/><path stroke="#000000" stroke-width="1.0" stroke-linejoin="round" stroke-linecap="butt" d="m230.30052 84.62336l47.936996 0l0 47.937004l-47.936996 0z" fill-rule="evenodd"/><path fill="#000000" d="m244.43074 115.51186l0 -13.359375l2.65625 0l3.15625 9.453125q0.4375 1.328125 0.640625 1.984375q0.234375 -0.734375 0.703125 -2.140625l3.203125 -9.296875l2.3749847 0l0 13.359375l-1.7031097 0l0 -11.171875l-3.875 11.171875l-1.59375 0l-3.859375 -11.375l0 11.375l-1.703125 0z" fill-rule="nonzero"/><path fill="#000000" d="m264.84653 121.46499l0 1.046875l-5.890625 0q-0.015625 -0.390625 0.125 -0.765625q0.234375 -0.59375 0.71875 -1.171875q0.5 -0.59375 1.4375 -1.359375q1.453125 -1.1875 1.953125 -1.875q0.515625 -0.703125 0.515625 -1.3125q0 -0.65625 -0.46875 -1.09375q-0.453125 -0.453125 -1.203125 -0.453125q-0.796875 0 -1.265625 0.46875q-0.46875 0.46875 -0.484375 1.3125l-1.125 -0.109375q0.125 -1.265625 0.875 -1.921875q0.75 -0.65625 2.015625 -0.65625q1.28125 0 2.03125 0.71875q0.75 0.703125 0.75 1.75q0 0.53125 -0.21875 1.046875q-0.21875 0.515625 -0.734375 1.09375q-0.5 0.5625 -1.671875 1.5625q-0.984375 0.828125 -1.265625 1.125q-0.28125 0.296875 -0.46875 0.59375l4.375 0z" fill-rule="nonzero"/><path fill="#cfe2f3" d="m327.06693 84.62336l47.93701 0l0 47.937004l-47.93701 0z" fill-rule="evenodd"/><path stroke="#000000" stroke-width="1.0" stroke-linejoin="round" stroke-linecap="butt" d="m327.06693 84.62336l47.93701 0l0 47.937004l-47.93701 0z" fill-rule="evenodd"/><path fill="#000000" d="m341.19714 115.51186l0 -13.359375l2.65625 0l3.15625 9.453125q0.4375 1.328125 0.640625 1.984375q0.234375 -0.734375 0.703125 -2.140625l3.203125 -9.296875l2.375 0l0 13.359375l-1.703125 0l0 -11.171875l-3.875 11.171875l-1.59375 0l-3.859375 -11.375l0 11.375l-1.703125 0z" fill-rule="nonzero"/><path fill="#000000" d="m355.86295 120.16811l1.09375 -0.15625q0.1875 0.9375 0.640625 1.34375q0.453125 0.40625 1.109375 0.40625q0.765625 0 1.296875 -0.53125q0.53125 -0.53125 0.53125 -1.328125q0 -0.75 -0.5 -1.234375q-0.484375 -0.5 -1.234375 -0.5q-0.3125 0 -0.78125 0.125l0.125 -0.953125q0.109375 0.015625 0.171875 0.015625q0.703125 0 1.265625 -0.359375q0.5625 -0.375 0.5625 -1.140625q0 -0.59375 -0.40625 -0.984375q-0.40625 -0.40625 -1.0625 -0.40625q-0.625 0 -1.0625 0.40625q-0.421875 0.40625 -0.546875 1.203125l-1.09375 -0.1875q0.203125 -1.109375 0.90625 -1.703125q0.71875 -0.609375 1.78125 -0.609375q0.71875 0 1.328125 0.3125q0.625 0.3125 0.953125 0.859375q0.328125 0.53125 0.328125 1.140625q0 0.578125 -0.3125 1.0625q-0.3125 0.46875 -0.921875 0.734375q0.796875 0.1875 1.234375 0.765625q0.4375 0.578125 0.4375 1.4375q0 1.15625 -0.859375 1.96875q-0.84375 0.8125 -2.140625 0.8125q-1.171875 0 -1.953125 -0.6875q-0.78125 -0.703125 -0.890625 -1.8125z" fill-rule="nonzero"/><path fill="#000000" fill-opacity="0.0" d="m48.271652 132.56036c0 9.291336 27.30709 18.574814 54.614174 18.582687c27.30709 0.007873535 54.614174 -9.259842 54.614174 -18.5197" fill-rule="evenodd"/><path stroke="#000000" stroke-width="1.0" stroke-linejoin="round" stroke-linecap="butt" d="m48.271652 132.56036c0 9.291336 27.30709 18.574814 54.614174 18.582687c13.653542 0.0039367676 27.30709 -2.3110352 37.54725 -5.7844543c5.1200714 -1.7367096 9.38681 -3.7630463 12.37352 -5.9339294c1.4933624 -1.0854492 2.6667023 -2.2070312 3.4667206 -3.3466187l0.13934326 -0.2046814" fill-rule="evenodd"/><path fill="#000000" stroke="#000000" stroke-width="1.0" stroke-linecap="butt" d="m156.41266 135.87337l0.709671 1.4232941l-0.08616638 -3.2869263l-2.0467987 2.5733032z" fill-rule="evenodd"/><path fill="#000000" fill-opacity="0.0" d="m141.07742 45.851707l32.850403 0l0 38.771652l-32.850403 0z" fill-rule="evenodd"/><path fill="#000000" d="m157.45735 62.852333l-1.0156403 0.8125q-0.953125 -0.734375 -1.796875 -0.734375q-0.6875 0 -1.0 0.375q-0.3125 0.359375 -0.3125 0.78125q0 0.546875 0.46875 0.921875q0.46875 0.359375 1.375 0.359375q0.109375 0 0.390625 -0.015625l0 1.1875q-0.25 -0.015625 -0.375 -0.015625q-1.125 0 -1.5625 0.4375q-0.421875 0.421875 -0.421875 0.96875q0 0.546875 0.4375 0.9375q0.4375 0.375 1.03125 0.375q1.109375 0 2.0625 -1.03125l1.0156403 0.859375q-1.2500153 1.328125 -3.1093903 1.328125q-1.46875 0 -2.1875 -0.734375q-0.71875 -0.75 -0.71875 -1.734375q0 -1.421875 1.375 -2.015625q-1.140625 -0.640625 -1.140625 -1.78125q0 -0.9375 0.671875 -1.671875q0.6875 -0.734375 2.09375 -0.734375q1.609375 0 2.7187653 1.125z" fill-rule="nonzero"/><path fill="#000000" d="m162.07454 76.21171l-0.9375 0l0 -5.96875q-0.34375 0.328125 -0.890625 0.65625q-0.546875 0.3125 -0.984375 0.46875l0 -0.90625q0.796875 -0.359375 1.375 -0.890625q0.59375 -0.53125 0.828125 -1.015625l0.609375 0l0 7.65625z" fill-rule="nonzero"/><path fill="#000000" fill-opacity="0.0" d="m237.84383 45.851707l32.850388 0l0 38.771652l-32.850388 0z" fill-rule="evenodd"/><path fill="#000000" d="m254.22375 62.852333l-1.015625 0.8125q-0.953125 -0.734375 -1.796875 -0.734375q-0.6875 0 -1.0 0.375q-0.3125 0.359375 -0.3125 0.78125q0 0.546875 0.46875 0.921875q0.46875 0.359375 1.375 0.359375q0.109375 0 0.390625 -0.015625l0 1.1875q-0.25 -0.015625 -0.375 -0.015625q-1.125 0 -1.5625 0.4375q-0.421875 0.421875 -0.421875 0.96875q0 0.546875 0.4375 0.9375q0.4375 0.375 1.03125 0.375q1.109375 0 2.0625 -1.03125l1.015625 0.859375q-1.25 1.328125 -3.109375 1.328125q-1.46875 0 -2.1875 -0.734375q-0.71875 -0.75 -0.71875 -1.734375q0 -1.421875 1.375 -2.015625q-1.140625 -0.640625 -1.140625 -1.78125q0 -0.9375 0.671875 -1.671875q0.6875 -0.734375 2.09375 -0.734375q1.609375 0 2.71875 1.125z" fill-rule="nonzero"/><path fill="#000000" d="m260.23157 75.30546l0 0.90625l-5.03125 0q-0.015625 -0.34375 0.109375 -0.65625q0.1875 -0.515625 0.609375 -1.015625q0.421875 -0.5 1.234375 -1.140625q1.234375 -1.03125 1.671875 -1.625q0.4375 -0.59375 0.4375 -1.125q0 -0.5625 -0.40625 -0.9375q-0.390625 -0.390625 -1.03125 -0.390625q-0.671875 0 -1.078125 0.40625q-0.40625 0.40625 -0.40625 1.125l-0.96875 -0.09375q0.09375 -1.078125 0.734375 -1.640625q0.65625 -0.5625 1.734375 -0.5625q1.109375 0 1.75 0.609375q0.640625 0.609375 0.640625 1.5q0 0.46875 -0.1875 0.90625q-0.1875 0.4375 -0.625 0.9375q-0.4375 0.484375 -1.453125 1.328125q-0.828125 0.71875 -1.078125 0.96875q-0.234375 0.25 -0.390625 0.5l3.734375 0z" fill-rule="nonzero"/><path fill="#000000" fill-opacity="0.0" d="m334.61023 45.851707l32.850403 0l0 38.771652l-32.850403 0z" fill-rule="evenodd"/><path fill="#000000" d="m350.99014 62.852333l-1.015625 0.8125q-0.953125 -0.734375 -1.796875 -0.734375q-0.6875 0 -1.0 0.375q-0.3125 0.359375 -0.3125 0.78125q0 0.546875 0.46875 0.921875q0.46875 0.359375 1.375 0.359375q0.109375 0 0.390625 -0.015625l0 1.1875q-0.25 -0.015625 -0.375 -0.015625q-1.125 0 -1.5625 0.4375q-0.421875 0.421875 -0.421875 0.96875q0 0.546875 0.4375 0.9375q0.4375 0.375 1.03125 0.375q1.109375 0 2.0625 -1.03125l1.015625 0.859375q-1.25 1.328125 -3.109375 1.328125q-1.46875 0 -2.1875 -0.734375q-0.71875 -0.75 -0.71875 -1.734375q0 -1.421875 1.375 -2.015625q-1.140625 -0.640625 -1.140625 -1.78125q0 -0.9375 0.671875 -1.671875q0.6875 -0.734375 2.09375 -0.734375q1.609375 0 2.71875 1.125z" fill-rule="nonzero"/><path fill="#000000" d="m352.0917 74.19608l0.9375 -0.125q0.15625 0.796875 0.546875 1.15625q0.390625 0.34375 0.9375 0.34375q0.65625 0 1.109375 -0.453125q0.46875 -0.46875 0.46875 -1.140625q0 -0.640625 -0.421875 -1.0625q-0.421875 -0.421875 -1.078125 -0.421875q-0.265625 0 -0.65625 0.109375l0.109375 -0.828125q0.09375 0.015625 0.140625 0.015625q0.59375 0 1.078125 -0.3125q0.484375 -0.3125 0.484375 -0.96875q0 -0.515625 -0.359375 -0.84375q-0.34375 -0.34375 -0.890625 -0.34375q-0.546875 0 -0.921875 0.34375q-0.359375 0.34375 -0.453125 1.03125l-0.9375 -0.171875q0.171875 -0.9375 0.78125 -1.453125q0.609375 -0.515625 1.5 -0.515625q0.625 0 1.15625 0.265625q0.53125 0.265625 0.796875 0.734375q0.28125 0.453125 0.28125 0.984375q0 0.484375 -0.265625 0.890625q-0.265625 0.40625 -0.78125 0.65625q0.671875 0.15625 1.046875 0.65625q0.375 0.484375 0.375 1.21875q0 1.0 -0.734375 1.703125q-0.71875 0.6875 -1.828125 0.6875q-1.0 0 -1.671875 -0.59375q-0.65625 -0.609375 -0.75 -1.5625z" fill-rule="nonzero"/><path fill="#000000" fill-opacity="0.0" d="m48.271652 132.56036c0 13.448822 51.496063 26.88977 102.99213 26.897644c51.496063 0.007873535 102.99213 -13.417328 102.99213 -26.834656" fill-rule="evenodd"/><path stroke="#000000" stroke-width="1.0" stroke-linejoin="round" stroke-linecap="butt" d="m48.271652 132.56036c0 13.448822 51.496063 26.88977 102.99213 26.897644c25.748032 0.0039367676 51.496063 -3.3504028 70.80708 -8.382874c9.655518 -2.5162506 17.701782 -5.4520264 23.334152 -8.597321c2.8161926 -1.5726471 5.0289154 -3.1976776 6.5375977 -4.848831c0.37716675 -0.41279602 0.7103424 -0.82722473 0.9979248 -1.2428741c0.071884155 -0.10391235 0.14094543 -0.207901 0.2071228 -0.31195068l0.1055603 -0.17367554" fill-rule="evenodd"/><path fill="#000000" stroke="#000000" stroke-width="1.0" stroke-linecap="butt" d="m253.25322 135.90048l0.74635315 1.4044037l-0.17138672 -3.2835999l-1.9793549 2.6255493z" fill-rule="evenodd"/><path fill="#000000" fill-opacity="0.0" d="m48.271652 132.56036c0 18.094498 75.69292 36.181107 151.38583 36.18898c75.69292 0.007873535 151.38582 -18.062988 151.38582 -36.12599" fill-rule="evenodd"/><path stroke="#000000" stroke-width="1.0" stroke-linejoin="round" stroke-linecap="butt" d="m48.271652 132.56036c0 18.094498 75.69292 36.181107 151.38583 36.18898c37.84645 0.0039367676 75.69292 -4.5118103 104.07774 -11.286423c14.192413 -3.3872986 26.01944 -7.3393097 34.29837 -11.573441c4.139435 -2.1170654 7.391876 -4.304657 9.609436 -6.527466c1.1087646 -1.1113892 1.9588318 -2.2315826 2.5317078 -3.3561707l0.02947998 -0.05970764" fill-rule="evenodd"/><path fill="#000000" stroke="#000000" stroke-width="1.0" stroke-linecap="butt" d="m350.20425 135.94615l0.81500244 1.3656769l-0.3338623 -3.2710571l-1.8468323 2.720398z" fill-rule="evenodd"/><path fill="#000000" fill-opacity="0.0" d="m181.48163 108.591866l48.818893 0" fill-rule="evenodd"/><path stroke="#000000" stroke-width="1.0" stroke-linejoin="round" stroke-linecap="butt" d="m181.48163 108.591866l45.391815 0" fill-rule="evenodd"/><path fill="#000000" stroke="#000000" stroke-width="1.0" stroke-linecap="butt" d="m226.87344 108.591866l-1.124588 1.1245804l3.0897675 -1.1245804l-3.0897675 -1.124588z" fill-rule="evenodd"/><path fill="#000000" fill-opacity="0.0" d="m278.24802 108.591866l48.81891 0" fill-rule="evenodd"/><path stroke="#000000" stroke-width="1.0" stroke-linejoin="round" stroke-linecap="butt" d="m278.24802 108.591866l45.391815 0" fill-rule="evenodd"/><path fill="#000000" stroke="#000000" stroke-width="1.0" stroke-linecap="butt" d="m323.63983 108.591866l-1.1245728 1.1245804l3.0897827 -1.1245804l-3.0897827 -1.124588z" fill-rule="evenodd"/><path fill="#000000" fill-opacity="0.0" d="m181.46588 108.57612c14.094482 0 21.141724 -10.834648 28.18898 -21.669296c7.047241 -10.8346405 14.094482 -21.669289 28.188965 -21.669289" fill-rule="evenodd"/><path stroke="#000000" stroke-width="2.0" stroke-linejoin="round" stroke-linecap="butt" d="m181.46588 108.57612c14.094482 0 21.141724 -10.834648 28.18898 -21.669296c3.5236206 -5.4173203 7.047241 -10.8346405 11.451767 -14.897636c2.2022552 -2.0314941 4.624756 -3.724411 7.3775787 -4.9094467c0.6882019 -0.29626465 1.3970642 -0.56077576 2.1282806 -0.7909088l0.44172668 -0.13277435" fill-rule="evenodd"/><path fill="#000000" stroke="#000000" stroke-width="2.0" stroke-linecap="butt" d="m231.05421 66.176056l-1.9200134 2.5359573l5.8133698 -3.0741348l-6.429306 -1.3818283z" fill-rule="evenodd"/><path fill="#000000" fill-opacity="0.0" d="m278.23227 108.57612c14.094513 0 21.141754 -10.834648 28.188995 -21.669296c7.047241 -10.8346405 14.094482 -21.669289 28.188965 -21.669289" fill-rule="evenodd"/><path stroke="#000000" stroke-width="2.0" stroke-linejoin="round" stroke-linecap="butt" d="m278.23227 108.57612c14.094513 0 21.141754 -10.834648 28.188995 -21.669296c3.5236206 -5.4173203 7.047241 -10.8346405 11.451752 -14.897636c2.2022705 -2.0314941 4.624756 -3.724411 7.377594 -4.9094467c0.6882019 -0.29626465 1.3970642 -0.56077576 2.128296 -0.7909088l0.44171143 -0.13277435" fill-rule="evenodd"/><path fill="#000000" stroke="#000000" stroke-width="2.0" stroke-linecap="butt" d="m327.82062 66.176056l-1.9200134 2.5359573l5.8133545 -3.0741348l-6.429291 -1.3818283z" fill-rule="evenodd"/></g></svg>