<svg version="1.1" viewBox="0.0 0.0 370.06824146981626 231.45931758530185" fill="none" stroke="none" stroke-linecap="square" stroke-miterlimit="10" xmlns:xlink="http://www.w3.org/1999/xlink" xmlns="http://www.w3.org/2000/svg"><clipPath id="p.0"><path d="m0 0l370.06824 0l0 231.45932l-370.06824 0l0 -231.45932z" clip-rule="nonzero"/></clipPath><g clip-path="url(#p.0)"><path fill="#000000" fill-opacity="0.0" d="m0 0l370.06824 0l0 231.45932l-370.06824 0z" fill-rule="evenodd"/><path fill="#f4cccc" d="m13.303149 99.3294l0 0c0 -9.093132 15.874503 -16.46457 35.45669 -16.46457c19.582191 0 35.456696 7.371437 35.456696 16.46457l0 65.85827c0 9.093124 -15.874504 16.46457 -35.456696 16.46457c-19.58219 0 -35.45669 -7.3714447 -35.45669 -16.46457z" fill-rule="evenodd"/><path fill="#000000" fill-opacity="0.0" d="m84.21654 99.3294l0 0c0 9.093124 -15.874504 16.464561 -35.456696 16.464561c-19.58219 0 -35.45669 -7.371437 -35.45669 -16.464561" fill-rule="evenodd"/><path fill="#000000" fill-opacity="0.0" d="m13.303149 99.3294l0 0c0 -9.093132 15.874503 -16.46457 35.45669 -16.46457c19.582191 0 35.456696 7.371437 35.456696 16.46457l0 65.85827c0 9.093124 -15.874504 16.46457 -35.456696 16.46457c-19.58219 0 -35.45669 -7.3714447 -35.45669 -16.46457z" fill-rule="evenodd"/><path stroke="#000000" stroke-width="1.0" stroke-linejoin="round" stroke-linecap="butt" d="m84.21654 99.3294l0 0c0 9.093124 -15.874504 16.464561 -35.456696 16.464561c-19.58219 0 -35.45669 -7.371437 -35.45669 -16.464561" fill-rule="evenodd"/><path stroke="#000000" stroke-width="1.0" stroke-linejoin="round" stroke-linecap="butt" d="m13.303149 99.3294l0 0c0 -9.093132 15.874503 -16.46457 35.45669 -16.46457c19.582191 0 35.456696 7.371437 35.456696 16.46457l0 65.85827c0 9.093124 -15.874504 16.46457 -35.456696 16.46457c-19.58219 0 -35.45669 -7.3714447 -35.45669 -16.46457z" fill-rule="evenodd"/><path fill="#000000" d="m30.493502 147.41081l0 -13.359375l4.609373 0q1.546875 0 2.375 0.203125q1.140625 0.25 1.953125 0.953125q1.0625 0.890625 1.578125 2.28125q0.53125 1.390625 0.53125 3.171875q0 1.515625 -0.359375 2.703125q-0.359375 1.171875 -0.921875 1.9375q-0.546875 0.765625 -1.203125 1.21875q-0.65625 0.4375 -1.59375 0.671875q-0.9375 0.21875 -2.140625 0.21875l-4.828123 0zm1.7656231 -1.578125l2.859375 0q1.3125 0 2.0625 -0.234375q0.75 -0.25 1.203125 -0.703125q0.625 -0.625 0.96875 -1.6875q0.359375 -1.0625 0.359375 -2.578125q0 -2.09375 -0.6875 -3.21875q-0.6875 -1.125 -1.671875 -1.5q-0.703125 -0.28125 -2.28125 -0.28125l-2.8125 0l0 10.203125zm17.8167 0.390625q-0.921875 0.765625 -1.765625 1.09375q-0.828125 0.3125 -1.796875 0.3125q-1.5937538 0 -2.4531288 -0.78125q-0.859375 -0.78125 -0.859375 -1.984375q0 -0.71875 0.328125 -1.296875q0.328125 -0.59375 0.84375 -0.9375q0.53125 -0.359375 1.1875038 -0.546875q0.46875 -0.125 1.453125 -0.25q1.984375 -0.234375 2.921875 -0.5625q0.015625 -0.34375 0.015625 -0.421875q0 -1.0 -0.46875 -1.421875q-0.625 -0.546875 -1.875 -0.546875q-1.15625 0 -1.703125 0.40625q-0.546875 0.40625 -0.8125038 1.421875l-1.609375 -0.21875q0.21875 -1.015625 0.71875 -1.640625q0.5 -0.640625 1.4531288 -0.984375q0.953125 -0.34375 2.1875 -0.34375q1.25 0 2.015625 0.296875q0.78125 0.28125 1.140625 0.734375q0.375 0.4375 0.515625 1.109375q0.078125 0.421875 0.078125 1.515625l0 2.1875q0 2.28125 0.109375 2.890625q0.109375 0.59375 0.40625 1.15625l-1.703125 0q-0.265625 -0.515625 -0.328125 -1.1875zm-0.140625 -3.671875q-0.890625 0.375 -2.671875 0.625q-1.015625 0.140625 -1.4375 0.328125q-0.421875 0.1875 -0.6562538 0.53125q-0.21875 0.34375 -0.21875 0.78125q0 0.65625 0.5000038 1.09375q0.5 0.4375 1.453125 0.4375q0.9375 0 1.671875 -0.40625q0.75 -0.421875 1.09375 -1.140625q0.265625 -0.5625 0.265625 -1.640625l0 -0.609375zm7.781967 3.390625l0.234375 1.453125q-0.6875 0.140625 -1.234375 0.140625q-0.890625 0 -1.390625 -0.28125q-0.484375 -0.28125 -0.6875 -0.734375q-0.203125 -0.46875 -0.203125 -1.9375l0 -5.578125l-1.203125 0l0 -1.265625l1.203125 0l0 -2.390625l1.625 -0.984375l0 3.375l1.65625 0l0 1.265625l-1.65625 0l0 5.671875q0 0.6875 0.078125 0.890625q0.09375 0.203125 0.28125 0.328125q0.203125 0.109375 0.578125 0.109375q0.265625 0 0.71875 -0.0625zm7.917675 0.28125q-0.921875 0.765625 -1.7656212 1.09375q-0.828125 0.3125 -1.796875 0.3125q-1.59375 0 -2.453125 -0.78125q-0.859375 -0.78125 -0.859375 -1.984375q0 -0.71875 0.328125 -1.296875q0.328125 -0.59375 0.84375 -0.9375q0.53125 -0.359375 1.1875 -0.546875q0.46875 -0.125 1.453125 -0.25q1.9843712 -0.234375 2.9218712 -0.5625q0.015625 -0.34375 0.015625 -0.421875q0 -1.0 -0.46875 -1.421875q-0.625 -0.546875 -1.8749962 -0.546875q-1.15625 0 -1.703125 0.40625q-0.546875 0.40625 -0.8125 1.421875l-1.609375 -0.21875q0.21875 -1.015625 0.71875 -1.640625q0.5 -0.640625 1.453125 -0.984375q0.953125 -0.34375 2.1875 -0.34375q1.2499962 0 2.0156212 0.296875q0.78125 0.28125 1.140625 0.734375q0.375 0.4375 0.515625 1.109375q0.078125 0.421875 0.078125 1.515625l0 2.1875q0 2.28125 0.109375 2.890625q0.109375 0.59375 0.40625 1.15625l-1.703125 0q-0.265625 -0.515625 -0.328125 -1.1875zm-0.140625 -3.671875q-0.890625 0.375 -2.6718712 0.625q-1.015625 0.140625 -1.4375 0.328125q-0.421875 0.1875 -0.65625 0.53125q-0.21875 0.34375 -0.21875 0.78125q0 0.65625 0.5 1.09375q0.5 0.4375 1.453125 0.4375q0.9375 0 1.6718712 -0.40625q0.75 -0.421875 1.09375 -1.140625q0.265625 -0.5625 0.265625 -1.640625l0 -0.609375z" fill-rule="nonzero"/><path fill="#cfe2f3" d="m135.99738 38.772137l47.93701 0l0 65.543304l-47.93701 0z" fill-rule="evenodd"/><path stroke="#000000" stroke-width="1.0" stroke-linejoin="round" stroke-linecap="butt" d="m135.99738 38.772137l47.93701 0l0 65.543304l-47.93701 0z" fill-rule="evenodd"/><path fill="#000000" d="m147.87968 78.46378l0 -13.359375l1.765625 0l0 13.359375l-1.765625 0zm4.839554 0l0 -13.359375l2.65625 0l3.15625 9.453125q0.4375 1.328125 0.640625 1.984375q0.234375 -0.734375 0.703125 -2.140625l3.203125 -9.296875l2.375 0l0 13.359375l-1.703125 0l0 -11.171875l-3.875 11.171875l-1.59375 0l-3.859375 -11.375l0 11.375l-1.703125 0z" fill-rule="nonzero"/><path fill="#000000" d="m171.51004 85.46378l-1.09375 0l0 -6.96875q-0.40625 0.375 -1.046875 0.75q-0.640625 0.375 -1.140625 0.578125l0 -1.0625q0.90625 -0.4375 1.59375 -1.046875q0.6875 -0.609375 0.96875 -1.1875l0.71875 0l0 8.9375z" fill-rule="nonzero"/><path fill="#cfe2f3" d="m135.99738 153.55952l47.93701 0l0 65.543304l-47.93701 0z" fill-rule="evenodd"/><path stroke="#000000" stroke-width="1.0" stroke-linejoin="round" stroke-linecap="butt" d="m135.99738 153.55952l47.93701 0l0 65.543304l-47.93701 0z" fill-rule="evenodd"/><path fill="#000000" d="m147.87968 193.25117l0 -13.359375l1.765625 0l0 13.359375l-1.765625 0zm4.839554 0l0 -13.359375l2.65625 0l3.15625 9.453125q0.4375 1.328125 0.640625 1.984375q0.234375 -0.734375 0.703125 -2.140625l3.203125 -9.296875l2.375 0l0 13.359375l-1.703125 0l0 -11.171875l-3.875 11.171875l-1.59375 0l-3.859375 -11.375l0 11.375l-1.703125 0z" fill-rule="nonzero"/><path fill="#000000" d="m173.13504 199.2043l0 1.046875l-5.890625 0q-0.015625 -0.390625 0.125 -0.765625q0.234375 -0.59375 0.71875 -1.171875q0.5 -0.59375 1.4375 -1.359375q1.453125 -1.1875 1.953125 -1.875q0.515625 -0.703125 0.515625 -1.3125q0 -0.65625 -0.46875 -1.09375q-0.453125 -0.453125 -1.203125 -0.453125q-0.796875 0 -1.265625 0.46875q-0.46875 0.46875 -0.484375 1.3125l-1.125 -0.109375q0.125 -1.265625 0.875 -1.921875q0.75 -0.65625 2.015625 -0.65625q1.28125 0 2.03125 0.71875q0.75 0.703125 0.75 1.75q0 0.53125 -0.21875 1.046875q-0.21875 0.515625 -0.734375 1.09375q-0.5 0.5625 -1.671875 1.5625q-0.984375 0.828125 -1.265625 1.125q-0.28125 0.296875 -0.46875 0.59375l4.375 0z" fill-rule="nonzero"/><path fill="#000000" fill-opacity="0.0" d="m84.21654 132.25853l51.779526 -60.72441" fill-rule="evenodd"/><path stroke="#000000" stroke-width="1.0" stroke-linejoin="round" stroke-linecap="butt" d="m86.44016 129.65077l47.332268 -55.50889" fill-rule="evenodd"/><path fill="#000000" stroke="#000000" stroke-width="1.0" stroke-linecap="butt" d="m86.44016 129.65077l-0.12605286 -1.5854034l-1.1490326 3.0807648l2.8604813 -1.6214142z" fill-rule="evenodd"/><path fill="#000000" stroke="#000000" stroke-width="1.0" stroke-linecap="butt" d="m133.77243 74.14188l0.12605286 1.5854034l1.1490479 -3.0807571l-2.860489 1.6214066z" fill-rule="evenodd"/><path fill="#000000" fill-opacity="0.0" d="m84.21654 132.25853l51.779526 54.078735" fill-rule="evenodd"/><path stroke="#000000" stroke-width="1.0" stroke-linejoin="round" stroke-linecap="butt" d="m86.586655 134.73389l47.03929 49.128006" fill-rule="evenodd"/><path fill="#000000" stroke="#000000" stroke-width="1.0" stroke-linecap="butt" d="m86.58666 134.7339l1.5900192 0.03453064l-2.949112 -1.4539795l1.3245544 3.0094757z" fill-rule="evenodd"/><path fill="#000000" stroke="#000000" stroke-width="1.0" stroke-linecap="butt" d="m133.62595 183.86191l-1.5900269 -0.0345459l2.949112 1.4539795l-1.3245544 -3.0094604z" fill-rule="evenodd"/><path fill="#000000" fill-opacity="0.0" d="m143.53937 -0.001312336l32.850403 0l0 38.771652l-32.850403 0z" fill-rule="evenodd"/><path fill="#000000" d="m159.91928 16.999313l-1.015625 0.8125q-0.953125 -0.734375 -1.796875 -0.734375q-0.6875 0 -1.0 0.375q-0.3125 0.359375 -0.3125 0.78125q0 0.546875 0.46875 0.921875q0.46875 0.359375 1.375 0.359375q0.109375 0 0.390625 -0.015625l0 1.1875q-0.25 -0.015625 -0.375 -0.015625q-1.125 0 -1.5625 0.4375q-0.421875 0.421875 -0.421875 0.96875q0 0.546875 0.4375 0.9375q0.4375 0.375 1.03125 0.375q1.109375 0 2.0625 -1.03125l1.015625 0.859375q-1.25 1.328125 -3.109375 1.328125q-1.46875 0 -2.1875 -0.734375q-0.71875 -0.75 -0.71875 -1.734375q0 -1.421875 1.375 -2.015625q-1.140625 -0.640625 -1.140625 -1.78125q0 -0.9375 0.671875 -1.671875q0.6875 -0.734375 2.09375 -0.734375q1.609375 0 2.71875 1.125z" fill-rule="nonzero"/><path fill="#000000" d="m164.53647 30.358688l-0.9375 0l0 -5.96875q-0.34375 0.328125 -0.890625 0.65625q-0.546875 0.3125 -0.984375 0.46875l0 -0.90625q0.796875 -0.359375 1.375 -0.890625q0.59375 -0.53125 0.828125 -1.015625l0.609375 0l0 7.65625z" fill-rule="nonzero"/><path fill="#000000" fill-opacity="0.0" d="m143.53937 114.78609l32.850403 0l0 38.771652l-32.850403 0z" fill-rule="evenodd"/><path fill="#000000" d="m159.91928 131.78671l-1.015625 0.8125q-0.953125 -0.734375 -1.796875 -0.734375q-0.6875 0 -1.0 0.375q-0.3125 0.359375 -0.3125 0.78125q0 0.546875 0.46875 0.921875q0.46875 0.359375 1.375 0.359375q0.109375 0 0.390625 -0.015625l0 1.1875q-0.25 -0.015625 -0.375 -0.015625q-1.125 0 -1.5625 0.4375q-0.421875 0.421875 -0.421875 0.96875q0 0.546875 0.4375 0.9375q0.4375 0.375 1.03125 0.375q1.109375 0 2.0625 -1.03125l1.015625 0.859375q-1.25 1.328125 -3.109375 1.328125q-1.46875 0 -2.1875 -0.734375q-0.71875 -0.75 -0.71875 -1.734375q0 -1.421875 1.375 -2.015625q-1.140625 -0.640625 -1.140625 -1.78125q0 -0.9375 0.671875 -1.671875q0.6875 -0.734375 2.09375 -0.734375q1.609375 0 2.71875 1.125z" fill-rule="nonzero"/><path fill="#000000" d="m165.9271 144.23984l0 0.90625l-5.03125 0q-0.015625 -0.34375 0.109375 -0.65625q0.1875 -0.515625 0.609375 -1.015625q0.421875 -0.5 1.234375 -1.140625q1.234375 -1.03125 1.671875 -1.625q0.4375 -0.59375 0.4375 -1.125q0 -0.5625 -0.40625 -0.9375q-0.390625 -0.390625 -1.03125 -0.390625q-0.671875 0 -1.078125 0.40625q-0.40625 0.40625 -0.40625 1.125l-0.96875 -0.09375q0.09375 -1.078125 0.734375 -1.640625q0.65625 -0.5625 1.734375 -0.5625q1.109375 0 1.75 0.609375q0.640625 0.609375 0.640625 1.5q0 0.46875 -0.1875 0.90625q-0.1875 0.4375 -0.625 0.9375q-0.4375 0.484375 -1.453125 1.328125q-0.828125 0.71875 -1.078125 0.96875q-0.234375 0.25 -0.390625 0.5l3.734375 0z" fill-rule="nonzero"/><path fill="#000000" fill-opacity="0.0" d="m183.93439 51.45538l57.228348 0" fill-rule="evenodd"/><path stroke="#000000" stroke-width="1.0" stroke-linejoin="round" stroke-linecap="butt" d="m187.36147 51.45538l53.80127 0" fill-rule="evenodd"/><path fill="#000000" stroke="#000000" stroke-width="1.0" stroke-linecap="butt" d="m187.36147 51.45538l1.124588 -1.1245842l-3.0897675 1.1245842l3.0897675 1.1245842z" fill-rule="evenodd"/><path fill="#000000" fill-opacity="0.0" d="m183.93439 81.63911l57.228348 0" fill-rule="evenodd"/><path stroke="#000000" stroke-width="1.0" stroke-linejoin="round" stroke-linecap="butt" d="m187.36147 81.63911l53.80127 0" fill-rule="evenodd"/><path fill="#000000" stroke="#000000" stroke-width="1.0" stroke-linecap="butt" d="m187.36147 81.63911l1.124588 -1.1245804l-3.0897675 1.1245804l3.0897675 1.124588z" fill-rule="evenodd"/><path fill="#000000" fill-opacity="0.0" d="m183.93439 61.799213l57.228348 0" fill-rule="evenodd"/><path stroke="#000000" stroke-width="1.0" stroke-linejoin="round" stroke-linecap="butt" d="m183.93439 61.799213l53.801254 0" fill-rule="evenodd"/><path fill="#000000" stroke="#000000" stroke-width="1.0" stroke-linecap="butt" d="m237.73564 61.799213l-1.124588 1.1245842l3.0897675 -1.1245842l-3.0897675 -1.1245842z" fill-rule="evenodd"/><path fill="#000000" fill-opacity="0.0" d="m183.93439 91.63123l57.228348 0" fill-rule="evenodd"/><path stroke="#000000" stroke-width="1.0" stroke-linejoin="round" stroke-linecap="butt" d="m183.93439 91.63123l53.801254 0" fill-rule="evenodd"/><path fill="#000000" stroke="#000000" stroke-width="1.0" stroke-linecap="butt" d="m237.73564 91.63123l-1.124588 1.1245804l3.0897675 -1.1245804l-3.0897675 -1.1245804z" fill-rule="evenodd"/><path fill="#000000" fill-opacity="0.0" d="m183.93439 166.24147l57.228348 0" fill-rule="evenodd"/><path stroke="#000000" stroke-width="1.0" stroke-linejoin="round" stroke-linecap="butt" d="m187.36147 166.24147l53.80127 0" fill-rule="evenodd"/><path fill="#000000" stroke="#000000" stroke-width="1.0" stroke-linecap="butt" d="m187.36147 166.24147l1.124588 -1.124588l-3.0897675 1.124588l3.0897675 1.124588z" fill-rule="evenodd"/><path fill="#000000" fill-opacity="0.0" d="m183.93439 196.4252l57.228348 0" fill-rule="evenodd"/><path stroke="#000000" stroke-width="1.0" stroke-linejoin="round" stroke-linecap="butt" d="m187.36147 196.4252l53.80127 0" fill-rule="evenodd"/><path fill="#000000" stroke="#000000" stroke-width="1.0" stroke-linecap="butt" d="m187.36147 196.4252l1.124588 -1.124588l-3.0897675 1.124588l3.0897675 1.1245728z" fill-rule="evenodd"/><path fill="#000000" fill-opacity="0.0" d="m183.93439 176.5853l57.228348 0" fill-rule="evenodd"/><path stroke="#000000" stroke-width="1.0" stroke-linejoin="round" stroke-linecap="butt" d="m183.93439 176.5853l53.801254 0" fill-rule="evenodd"/><path fill="#000000" stroke="#000000" stroke-width="1.0" stroke-linecap="butt" d="m237.73564 176.5853l-1.124588 1.124588l3.0897675 -1.124588l-3.0897675 -1.1245728z" fill-rule="evenodd"/><path fill="#000000" fill-opacity="0.0" d="m183.93439 206.41733l57.228348 0" fill-rule="evenodd"/><path stroke="#000000" stroke-width="1.0" stroke-linejoin="round" stroke-linecap="butt" d="m183.93439 206.41733l53.801254 0" fill-rule="evenodd"/><path fill="#000000" stroke="#000000" stroke-width="1.0" stroke-linecap="butt" d="m237.73564 206.41733l-1.124588 1.1245728l3.0897675 -1.1245728l-3.0897675 -1.124588z" fill-rule="evenodd"/><path fill="#d9ead3" d="m241.16273 40.829395l0 0c0 -9.071384 7.3538055 -16.425196 16.425186 -16.425196c9.071381 0 16.425201 7.3538113 16.425201 16.425196c0 9.071388 -7.353821 16.425198 -16.425201 16.425198c-9.071381 0 -16.425186 -7.3538094 -16.425186 -16.425198z" fill-rule="evenodd"/><path fill="#adbba8" d="m250.61482 35.917046c0 -0.94493484 0.7660217 -1.7109566 1.7109528 -1.7109566c0.9449463 0 1.710968 0.7660217 1.710968 1.7109566c0 0.94493484 -0.7660217 1.7109566 -1.710968 1.7109566c-0.94493103 0 -1.7109528 -0.7660217 -1.7109528 -1.7109566m10.524307 0c0 -0.94493484 0.7660217 -1.7109566 1.7109375 -1.7109566c0.9449463 0 1.710968 0.7660217 1.710968 1.7109566c0 0.94493484 -0.7660217 1.7109566 -1.710968 1.7109566c-0.9449158 0 -1.7109375 -0.7660217 -1.7109375 -1.7109566" fill-rule="evenodd"/><path fill="#000000" fill-opacity="0.0" d="m248.68536 47.992535q8.902557 6.1141167 17.784332 0" fill-rule="evenodd"/><path fill="#000000" fill-opacity="0.0" d="m241.16273 40.829395l0 0c0 -9.071384 7.3538055 -16.425196 16.425186 -16.425196c9.071381 0 16.425201 7.3538113 16.425201 16.425196c0 9.071388 -7.353821 16.425198 -16.425201 16.425198c-9.071381 0 -16.425186 -7.3538094 -16.425186 -16.425198z" fill-rule="evenodd"/><path stroke="#000000" stroke-width="1.0" stroke-linejoin="round" stroke-linecap="butt" d="m250.61482 35.917046c0 -0.94493484 0.7660217 -1.7109566 1.7109528 -1.7109566c0.9449463 0 1.710968 0.7660217 1.710968 1.7109566c0 0.94493484 -0.7660217 1.7109566 -1.710968 1.7109566c-0.94493103 0 -1.7109528 -0.7660217 -1.7109528 -1.7109566m10.524307 0c0 -0.94493484 0.7660217 -1.7109566 1.7109375 -1.7109566c0.9449463 0 1.710968 0.7660217 1.710968 1.7109566c0 0.94493484 -0.7660217 1.7109566 -1.710968 1.7109566c-0.9449158 0 -1.7109375 -0.7660217 -1.7109375 -1.7109566" fill-rule="evenodd"/><path stroke="#000000" stroke-width="1.0" stroke-linejoin="round" stroke-linecap="butt" d="m248.68536 47.992535q8.902557 6.1141167 17.784332 0" fill-rule="evenodd"/><path stroke="#000000" stroke-width="1.0" stroke-linejoin="round" stroke-linecap="butt" d="m241.16273 40.829395l0 0c0 -9.071384 7.3538055 -16.425196 16.425186 -16.425196c9.071381 0 16.425201 7.3538113 16.425201 16.425196c0 9.071388 -7.353821 16.425198 -16.425201 16.425198c-9.071381 0 -16.425186 -7.3538094 -16.425186 -16.425198z" fill-rule="evenodd"/><path fill="#d9d2e9" d="m245.50656 186.3307l0 0c0 -9.071381 7.3538055 -16.425186 16.425201 -16.425186c9.071381 0 16.425201 7.3538055 16.425201 16.425186c0 9.071396 -7.353821 16.425201 -16.425201 16.425201c-9.071396 0 -16.425201 -7.3538055 -16.425201 -16.425201z" fill-rule="evenodd"/><path fill="#ada7ba" d="m254.95865 181.41837c0 -0.9449463 0.7660217 -1.710968 1.710968 -1.710968c0.9449463 0 1.710968 0.7660217 1.710968 1.710968c0 0.94493103 -0.7660217 1.7109528 -1.710968 1.7109528c-0.9449463 0 -1.710968 -0.7660217 -1.710968 -1.7109528m10.524292 0c0 -0.9449463 0.7660217 -1.710968 1.710968 -1.710968c0.9449463 0 1.710968 0.7660217 1.710968 1.710968c0 0.94493103 -0.7660217 1.7109528 -1.710968 1.7109528c-0.9449463 0 -1.710968 -0.7660217 -1.710968 -1.7109528" fill-rule="evenodd"/><path fill="#000000" fill-opacity="0.0" d="m253.02919 193.49385q8.902573 6.114105 17.784348 0" fill-rule="evenodd"/><path fill="#000000" fill-opacity="0.0" d="m245.50656 186.3307l0 0c0 -9.071381 7.3538055 -16.425186 16.425201 -16.425186c9.071381 0 16.425201 7.3538055 16.425201 16.425186c0 9.071396 -7.353821 16.425201 -16.425201 16.425201c-9.071396 0 -16.425201 -7.3538055 -16.425201 -16.425201z" fill-rule="evenodd"/><path stroke="#000000" stroke-width="1.0" stroke-linejoin="round" stroke-linecap="butt" d="m254.95865 181.41837c0 -0.9449463 0.7660217 -1.710968 1.710968 -1.710968c0.9449463 0 1.710968 0.7660217 1.710968 1.710968c0 0.94493103 -0.7660217 1.7109528 -1.710968 1.7109528c-0.9449463 0 -1.710968 -0.7660217 -1.710968 -1.7109528m10.524292 0c0 -0.9449463 0.7660217 -1.710968 1.710968 -1.710968c0.9449463 0 1.710968 0.7660217 1.710968 1.710968c0 0.94493103 -0.7660217 1.7109528 -1.710968 1.7109528c-0.9449463 0 -1.710968 -0.7660217 -1.710968 -1.7109528" fill-rule="evenodd"/><path stroke="#000000" stroke-width="1.0" stroke-linejoin="round" stroke-linecap="butt" d="m253.02919 193.49385q8.902573 6.114105 17.784348 0" fill-rule="evenodd"/><path stroke="#000000" stroke-width="1.0" stroke-linejoin="round" stroke-linecap="butt" d="m245.50656 186.3307l0 0c0 -9.071381 7.3538055 -16.425186 16.425201 -16.425186c9.071381 0 16.425201 7.3538055 16.425201 16.425186c0 9.071396 -7.353821 16.425201 -16.425201 16.425201c-9.071396 0 -16.425201 -7.3538055 -16.425201 -16.425201z" fill-rule="evenodd"/><path fill="#cfe2f3" d="m241.16273 76.960594l25.102371 0l0 24.062988l-25.102371 0z" fill-rule="evenodd"/><path stroke="#000000" stroke-width="1.0" stroke-linejoin="round" stroke-linecap="butt" d="m241.16273 76.960594l25.102371 0l0 24.062988l-25.102371 0z" fill-rule="evenodd"/><path fill="#000000" d="m246.8183 92.732086l0 -7.625l1.0 0l0 7.625l-1.0 0zm2.7575226 0l0 -7.625l1.515625 0l1.796875 5.390625q0.25 0.765625 0.375 1.140625q0.125 -0.421875 0.40625 -1.234375l1.828125 -5.296875l1.3437347 0l0 7.625l-0.96873474 0l0 -6.390625l-2.21875 6.390625l-0.90625 0l-2.203125 -6.5l0 6.5l-0.96875 0z" fill-rule="nonzero"/><path fill="#000000" d="m257.95255 95.388336l0.625 -0.078125q0.109375 0.53125 0.359375 0.765625q0.265625 0.234375 0.640625 0.234375q0.4375 0 0.734375 -0.296875q0.3125 -0.3125 0.3125 -0.765625q0 -0.4375 -0.28125 -0.71875q-0.28125 -0.28125 -0.71875 -0.28125q-0.171875 0 -0.4375 0.078125l0.0625 -0.546875q0.0625 0 0.109375 0q0.390625 0 0.703125 -0.203125q0.328125 -0.21875 0.328125 -0.640625q0 -0.34375 -0.234375 -0.5625q-0.21875 -0.234375 -0.59375 -0.234375q-0.359375 0 -0.609375 0.234375q-0.234375 0.21875 -0.3125 0.6875l-0.625 -0.125q0.109375 -0.625 0.515625 -0.96875q0.40625 -0.34375 1.015625 -0.34375q0.421875 0 0.765625 0.1875q0.359375 0.171875 0.53125 0.484375q0.1875 0.296875 0.1875 0.65625q0 0.328125 -0.171875 0.59375q-0.171875 0.265625 -0.515625 0.4375q0.4375 0.09375 0.6875 0.421875q0.25 0.328125 0.25 0.828125q0 0.65625 -0.484375 1.125q-0.484375 0.46875 -1.21875 0.46875q-0.671875 0 -1.125 -0.390625q-0.4375 -0.40625 -0.5 -1.046875z" fill-rule="nonzero"/><path fill="#000000" fill-opacity="0.0" d="m245.11427 101.02362l17.196854 0l0 9.70079l-17.196854 0z" fill-rule="evenodd"/><path fill="#000000" d="m253.68225 105.01612l-0.5 0.40625q-0.484375 -0.359375 -0.890625 -0.359375q-0.34375 0 -0.515625 0.1875q-0.15625 0.1875 -0.15625 0.390625q0 0.28125 0.234375 0.46875q0.234375 0.171875 0.6875 0.171875q0.0625 0 0.203125 0l0 0.578125q-0.125 0 -0.1875 0q-0.5625 0 -0.78125 0.21875q-0.21875 0.21875 -0.21875 0.484375q0 0.28125 0.21875 0.46875q0.21875 0.1875 0.53125 0.1875q0.546875 0 1.03125 -0.515625l0.5 0.421875q-0.625 0.671875 -1.5625 0.671875q-0.71875 0 -1.078125 -0.375q-0.359375 -0.375 -0.359375 -0.859375q0 -0.703125 0.6875 -1.0q-0.578125 -0.328125 -0.578125 -0.90625q0 -0.453125 0.328125 -0.828125q0.34375 -0.375 1.046875 -0.375q0.8125 0 1.359375 0.5625z" fill-rule="nonzero"/><path fill="#000000" d="m254.23303 110.70362l0.46875 -0.0625q0.078125 0.390625 0.265625 0.578125q0.203125 0.171875 0.484375 0.171875q0.328125 0 0.546875 -0.234375q0.234375 -0.234375 0.234375 -0.5625q0 -0.328125 -0.21875 -0.53125q-0.203125 -0.21875 -0.515625 -0.21875q-0.140625 0 -0.34375 0.046875l0.0625 -0.40625q0.046875 0 0.078125 0q0.296875 0 0.53125 -0.15625q0.234375 -0.15625 0.234375 -0.46875q0 -0.265625 -0.171875 -0.421875q-0.171875 -0.171875 -0.453125 -0.171875q-0.265625 0 -0.453125 0.171875q-0.171875 0.171875 -0.234375 0.515625l-0.46875 -0.09375q0.09375 -0.46875 0.390625 -0.71875q0.3125 -0.265625 0.765625 -0.265625q0.3125 0 0.5625 0.140625q0.265625 0.125 0.40625 0.359375q0.140625 0.234375 0.140625 0.484375q0 0.25 -0.140625 0.453125q-0.125 0.203125 -0.375 0.328125q0.328125 0.078125 0.515625 0.328125q0.1875 0.234375 0.1875 0.609375q0 0.5 -0.359375 0.84375q-0.359375 0.34375 -0.921875 0.34375q-0.5 0 -0.84375 -0.296875q-0.328125 -0.296875 -0.375 -0.765625z" fill-rule="nonzero"/><path fill="#000000" fill-opacity="0.0" d="m266.2651 81.63911l57.228333 0" fill-rule="evenodd"/><path stroke="#000000" stroke-width="1.0" stroke-linejoin="round" stroke-linecap="butt" d="m269.69217 81.63911l53.80127 0" fill-rule="evenodd"/><path fill="#000000" stroke="#000000" stroke-width="1.0" stroke-linecap="butt" d="m269.69217 81.63911l1.1246033 -1.1245804l-3.0897827 1.1245804l3.0897827 1.124588z" fill-rule="evenodd"/><path fill="#000000" fill-opacity="0.0" d="m266.2651 91.98294l57.228333 0" fill-rule="evenodd"/><path stroke="#000000" stroke-width="1.0" stroke-linejoin="round" stroke-linecap="butt" d="m266.2651 91.98294l53.80124 0" fill-rule="evenodd"/><path fill="#000000" stroke="#000000" stroke-width="1.0" stroke-linecap="butt" d="m320.06635 91.98294l-1.1245728 1.1245804l3.0897522 -1.1245804l-3.0897522 -1.124588z" fill-rule="evenodd"/><path fill="#d9d2e9" d="m328.7533 86.23097l0 0c0 -9.071388 7.3537903 -16.425201 16.42517 -16.425201c9.071411 0 16.425201 7.353813 16.425201 16.425201c0 9.071388 -7.3537903 16.425194 -16.425201 16.425194c-9.071381 0 -16.42517 -7.3538055 -16.42517 -16.425194z" fill-rule="evenodd"/><path fill="#ada7ba" d="m338.20538 81.31862c0 -0.94493103 0.7660217 -1.7109528 1.7109375 -1.7109528c0.9449463 0 1.710968 0.7660217 1.710968 1.7109528c0 0.94493866 -0.7660217 1.7109604 -1.710968 1.7109604c-0.9449158 0 -1.7109375 -0.7660217 -1.7109375 -1.7109604m10.524292 0c0 -0.94493103 0.7660217 -1.7109528 1.7109375 -1.7109528c0.9449463 0 1.710968 0.7660217 1.710968 1.7109528c0 0.94493866 -0.7660217 1.7109604 -1.710968 1.7109604c-0.9449158 0 -1.7109375 -0.7660217 -1.7109375 -1.7109604" fill-rule="evenodd"/><path fill="#000000" fill-opacity="0.0" d="m336.2759 93.39411q8.902557 6.114113 17.784332 0" fill-rule="evenodd"/><path fill="#000000" fill-opacity="0.0" d="m328.7533 86.23097l0 0c0 -9.071388 7.3537903 -16.425201 16.42517 -16.425201c9.071411 0 16.425201 7.353813 16.425201 16.425201c0 9.071388 -7.3537903 16.425194 -16.425201 16.425194c-9.071381 0 -16.42517 -7.3538055 -16.42517 -16.425194z" fill-rule="evenodd"/><path stroke="#000000" stroke-width="1.0" stroke-linejoin="round" stroke-linecap="butt" d="m338.20538 81.31862c0 -0.94493103 0.7660217 -1.7109528 1.7109375 -1.7109528c0.9449463 0 1.710968 0.7660217 1.710968 1.7109528c0 0.94493866 -0.7660217 1.7109604 -1.710968 1.7109604c-0.9449158 0 -1.7109375 -0.7660217 -1.7109375 -1.7109604m10.524292 0c0 -0.94493103 0.7660217 -1.7109528 1.7109375 -1.7109528c0.9449463 0 1.710968 0.7660217 1.710968 1.7109528c0 0.94493866 -0.7660217 1.7109604 -1.710968 1.7109604c-0.9449158 0 -1.7109375 -0.7660217 -1.7109375 -1.7109604" fill-rule="evenodd"/><path stroke="#000000" stroke-width="1.0" stroke-linejoin="round" stroke-linecap="butt" d="m336.2759 93.39411q8.902557 6.114113 17.784332 0" fill-rule="evenodd"/><path stroke="#000000" stroke-width="1.0" stroke-linejoin="round" stroke-linecap="butt" d="m328.7533 86.23097l0 0c0 -9.071388 7.3537903 -16.425201 16.42517 -16.425201c9.071411 0 16.425201 7.353813 16.425201 16.425201c0 9.071388 -7.3537903 16.425194 -16.425201 16.425194c-9.071381 0 -16.42517 -7.3538055 -16.42517 -16.425194z" fill-rule="evenodd"/><path fill="#000000" fill-opacity="0.0" d="m184.2009 92.58268c15.228348 0 22.842514 3.3228302 30.45668 6.645668c7.6141815 3.3228302 15.228348 6.645668 30.456696 6.645668" fill-rule="evenodd"/><path stroke="#000000" stroke-width="1.0" stroke-linejoin="round" stroke-linecap="butt" d="m184.2009 92.58268c15.2283325 0 22.842514 3.3228302 30.45668 6.645668c3.8070984 1.6614151 7.6141815 3.3228302 12.373032 4.5688934c2.3794403 0.6230316 4.996811 1.1422272 7.9711 1.505661c1.4871368 0.18171692 3.0634918 0.3244934 4.743988 0.42184448c0.42010498 0.024337769 0.8467407 0.045837402 1.2801056 0.06439972c0.2166748 0.009277344 0.43502808 0.017814636 0.65512085 0.025611877l0.0067749023 2.1362305E-4" fill-rule="evenodd"/><path fill="#000000" stroke="#000000" stroke-width="1.0" stroke-linecap="butt" d="m241.6877 105.81497l-1.1437988 1.1050415l3.1086884 -1.0711823l-3.069931 -1.1776505z" fill-rule="evenodd"/></g></svg>