<svg version="1.1" viewBox="0.0 0.0 400.62992125984255 440.4750656167979" fill="none" stroke="none" stroke-linecap="square" stroke-miterlimit="10" xmlns:xlink="http://www.w3.org/1999/xlink" xmlns="http://www.w3.org/2000/svg"><clipPath id="p.0"><path d="m0 0l400.6299 0l0 440.47507l-400.6299 0l0 -440.47507z" clip-rule="nonzero"/></clipPath><g clip-path="url(#p.0)"><path fill="#000000" fill-opacity="0.0" d="m0 0l400.6299 0l0 440.47507l-400.6299 0z" fill-rule="evenodd"/><path fill="#000000" fill-opacity="0.0" d="m200.81102 205.89896l0 159.02362" fill-rule="evenodd"/><path stroke="#000000" stroke-width="1.0" stroke-linejoin="round" stroke-linecap="butt" stroke-dasharray="4.0,3.0" d="m200.81102 205.89896l0 153.02362" fill-rule="evenodd"/><path fill="#000000" stroke="#000000" stroke-width="1.0" stroke-linecap="butt" d="m199.15929 358.92258l1.6517334 4.538086l1.6517334 -4.538086z" fill-rule="evenodd"/><path fill="#cfe2f3" d="m142.22835 142.81233l117.16536 0l0 63.086624l-117.16536 0z" fill-rule="evenodd"/><path stroke="#000000" stroke-width="1.0" stroke-linejoin="round" stroke-linecap="butt" d="m142.22835 142.81233l117.16536 0l0 63.086624l-117.16536 0z" fill-rule="evenodd"/><path fill="#000000" d="m160.68936 165.97876l1.65625 -0.140625q0.125 1.0 0.546875 1.640625q0.4375 0.640625 1.34375 1.046875q0.921875 0.390625 2.0625 0.390625q1.0 0 1.78125 -0.296875q0.78125 -0.296875 1.15625 -0.8125q0.375 -0.53125 0.375 -1.15625q0 -0.625 -0.375 -1.09375q-0.359375 -0.46875 -1.1875 -0.796875q-0.546875 -0.203125 -2.390625 -0.640625q-1.828125 -0.453125 -2.5625 -0.84375q-0.96875 -0.5 -1.4375 -1.234375q-0.46875 -0.75 -0.46875 -1.671875q0 -1.0 0.578125 -1.875q0.578125 -0.890625 1.671875 -1.34375q1.109375 -0.453125 2.453125 -0.453125q1.484375 0 2.609375 0.484375q1.140625 0.46875 1.75 1.40625q0.609375 0.921875 0.65625 2.09375l-1.6875 0.125q-0.140625 -1.265625 -0.9375 -1.90625q-0.78125 -0.65625 -2.3125 -0.65625q-1.609375 0 -2.34375 0.59375q-0.734375 0.59375 -0.734375 1.421875q0 0.71875 0.53125 1.171875q0.5 0.46875 2.65625 0.96875q2.15625 0.484375 2.953125 0.84375q1.171875 0.53125 1.71875 1.359375q0.5625 0.828125 0.5625 1.90625q0 1.0625 -0.609375 2.015625q-0.609375 0.9375 -1.75 1.46875q-1.140625 0.515625 -2.578125 0.515625q-1.8125 0 -3.046875 -0.53125q-1.21875 -0.53125 -1.921875 -1.59375q-0.6875 -1.0625 -0.71875 -2.40625zm19.459198 1.1875l1.6875 0.203125q-0.40625 1.484375 -1.484375 2.3125q-1.078125 0.8125 -2.765625 0.8125q-2.125 0 -3.375 -1.296875q-1.234375 -1.3125 -1.234375 -3.671875q0 -2.453125 1.25 -3.796875q1.265625 -1.34375 3.265625 -1.34375q1.9375 0 3.15625 1.328125q1.234375 1.3125 1.234375 3.703125q0 0.15625 0 0.4375l-7.21875 0q0.09375 1.59375 0.90625 2.453125q0.8125 0.84375 2.015625 0.84375q0.90625 0 1.546875 -0.46875q0.640625 -0.484375 1.015625 -1.515625zm-5.390625 -2.65625l5.40625 0q-0.109375 -1.21875 -0.625 -1.828125q-0.78125 -0.953125 -2.03125 -0.953125q-1.125 0 -1.90625 0.765625q-0.765625 0.75 -0.84375 2.015625zm8.485092 2.875l1.625 -0.25q0.125 0.96875 0.75 1.5q0.625 0.515625 1.75 0.515625q1.125 0 1.671875 -0.453125q0.546875 -0.46875 0.546875 -1.09375q0 -0.546875 -0.484375 -0.875q-0.328125 -0.21875 -1.671875 -0.546875q-1.8125 -0.46875 -2.515625 -0.796875q-0.6875 -0.328125 -1.046875 -0.90625q-0.359375 -0.59375 -0.359375 -1.3125q0 -0.640625 0.296875 -1.1875q0.296875 -0.5625 0.8125 -0.921875q0.375 -0.28125 1.03125 -0.46875q0.671875 -0.203125 1.421875 -0.203125q1.140625 0 2.0 0.328125q0.859375 0.328125 1.265625 0.890625q0.421875 0.5625 0.578125 1.5l-1.609375 0.21875q-0.109375 -0.75 -0.640625 -1.171875q-0.515625 -0.421875 -1.46875 -0.421875q-1.140625 0 -1.625 0.375q-0.46875 0.375 -0.46875 0.875q0 0.3125 0.1875 0.578125q0.203125 0.265625 0.640625 0.4375q0.234375 0.09375 1.4375 0.421875q1.75 0.453125 2.4375 0.75q0.6875 0.296875 1.078125 0.859375q0.390625 0.5625 0.390625 1.40625q0 0.828125 -0.484375 1.546875q-0.46875 0.71875 -1.375 1.125q-0.90625 0.390625 -2.046875 0.390625q-1.875 0 -2.875 -0.78125q-0.984375 -0.78125 -1.25 -2.328125zm9.328125 0l1.625 -0.25q0.125 0.96875 0.75 1.5q0.625 0.515625 1.75 0.515625q1.125 0 1.671875 -0.453125q0.546875 -0.46875 0.546875 -1.09375q0 -0.546875 -0.484375 -0.875q-0.328125 -0.21875 -1.671875 -0.546875q-1.8125 -0.46875 -2.515625 -0.796875q-0.6875 -0.328125 -1.046875 -0.90625q-0.359375 -0.59375 -0.359375 -1.3125q0 -0.640625 0.296875 -1.1875q0.296875 -0.5625 0.8125 -0.921875q0.375 -0.28125 1.03125 -0.46875q0.671875 -0.203125 1.421875 -0.203125q1.140625 0 2.0 0.328125q0.859375 0.328125 1.265625 0.890625q0.421875 0.5625 0.578125 1.5l-1.609375 0.21875q-0.109375 -0.75 -0.640625 -1.171875q-0.515625 -0.421875 -1.46875 -0.421875q-1.140625 0 -1.625 0.375q-0.46875 0.375 -0.46875 0.875q0 0.3125 0.1875 0.578125q0.203125 0.265625 0.640625 0.4375q0.234375 0.09375 1.4375 0.421875q1.75 0.453125 2.4375 0.75q0.6875 0.296875 1.078125 0.859375q0.390625 0.5625 0.390625 1.40625q0 0.828125 -0.484375 1.546875q-0.46875 0.71875 -1.375 1.125q-0.90625 0.390625 -2.046875 0.390625q-1.875 0 -2.875 -0.78125q-0.984375 -0.78125 -1.25 -2.328125zm9.984375 -8.578125l0 -1.890625l1.640625 0l0 1.890625l-1.640625 0zm0 11.46875l0 -9.671875l1.640625 0l0 9.671875l-1.640625 0zm3.5354462 -4.84375q0 -2.6875 1.484375 -3.96875q1.25 -1.078125 3.046875 -1.078125q2.0 0 3.265625 1.3125q1.265625 1.296875 1.265625 3.609375q0 1.859375 -0.5625 2.9375q-0.5625 1.0625 -1.640625 1.65625q-1.0625 0.59375 -2.328125 0.59375q-2.03125 0 -3.28125 -1.296875q-1.25 -1.3125 -1.25 -3.765625zm1.6875 0q0 1.859375 0.796875 2.796875q0.8125 0.921875 2.046875 0.921875q1.21875 0 2.03125 -0.921875q0.8125 -0.9375 0.8125 -2.84375q0 -1.796875 -0.8125 -2.71875q-0.8125 -0.921875 -2.03125 -0.921875q-1.234375 0 -2.046875 0.921875q-0.796875 0.90625 -0.796875 2.765625zm9.297592 4.84375l0 -9.671875l1.46875 0l0 1.375q1.0625 -1.59375 3.078125 -1.59375q0.875 0 1.609375 0.3125q0.734375 0.3125 1.09375 0.828125q0.375 0.5 0.515625 1.203125q0.09375 0.453125 0.09375 1.59375l0 5.953125l-1.640625 0l0 -5.890625q0 -1.0 -0.203125 -1.484375q-0.1875 -0.5 -0.671875 -0.796875q-0.484375 -0.296875 -1.140625 -0.296875q-1.046875 0 -1.8125 0.671875q-0.75 0.65625 -0.75 2.515625l0 5.28125l-1.640625 0zm21.277771 0l-1.640625 0l0 -10.453125q-0.59375 0.5625 -1.5625 1.140625q-0.953125 0.5625 -1.71875 0.84375l0 -1.59375q1.375 -0.640625 2.40625 -1.5625q1.03125 -0.921875 1.453125 -1.78125l1.0625 0l0 13.40625z" fill-rule="nonzero"/><path fill="#000000" d="m184.92226 183.69751l-1.171875 0.9375q-1.125 -0.84375 -2.09375 -0.84375q-0.796875 0 -1.171875 0.4375q-0.375 0.421875 -0.375 0.921875q0 0.625 0.546875 1.0625q0.546875 0.421875 1.609375 0.421875q0.140625 0 0.453125 -0.015625l0 1.375q-0.28125 -0.015625 -0.4375 -0.015625q-1.296875 0 -1.8125 0.515625q-0.5 0.5 -0.5 1.125q0 0.640625 0.5 1.09375q0.515625 0.4375 1.21875 0.4375q1.296875 0 2.40625 -1.203125l1.171875 1.0q-1.453125 1.546875 -3.625 1.546875q-1.703125 0 -2.546875 -0.859375q-0.828125 -0.875 -0.828125 -2.015625q0 -1.65625 1.609375 -2.34375q-1.34375 -0.75 -1.34375 -2.09375q0 -1.078125 0.78125 -1.9375q0.796875 -0.859375 2.4375 -0.859375q1.890625 0 3.171875 1.3125z" fill-rule="nonzero"/><path fill="#000000" d="m190.33298 199.27563l-1.09375 0l0 -6.96875q-0.40625 0.375 -1.046875 0.75q-0.640625 0.375 -1.140625 0.578125l0 -1.0625q0.90625 -0.4375 1.59375 -1.046875q0.6875 -0.609375 0.96875 -1.1875l0.71875 0l0 8.9375z" fill-rule="nonzero"/><path fill="#000000" d="m207.65207 184.41626l-8.828125 0l0 -1.515625l8.828125 0l0 1.515625zm0 4.0625l-8.828125 0l0 -1.53125l8.828125 0l0 1.53125zm7.0001373 0.265625l1.640625 -0.21875q0.28125 1.40625 0.953125 2.015625q0.6875 0.609375 1.65625 0.609375q1.15625 0 1.953125 -0.796875q0.796875 -0.796875 0.796875 -1.984375q0 -1.125 -0.734375 -1.859375q-0.734375 -0.734375 -1.875 -0.734375q-0.46875 0 -1.15625 0.171875l0.1875 -1.4375q0.15625 0.015625 0.265625 0.015625q1.046875 0 1.875 -0.546875q0.84375 -0.546875 0.84375 -1.671875q0 -0.90625 -0.609375 -1.5q-0.609375 -0.59375 -1.578125 -0.59375q-0.953125 0 -1.59375 0.609375q-0.640625 0.59375 -0.8125 1.796875l-1.640625 -0.296875q0.296875 -1.640625 1.359375 -2.546875q1.0625 -0.90625 2.65625 -0.90625q1.09375 0 2.0 0.46875q0.921875 0.46875 1.40625 1.28125q0.5 0.8125 0.5 1.71875q0 0.859375 -0.46875 1.578125q-0.46875 0.703125 -1.375 1.125q1.1875 0.28125 1.84375 1.140625q0.65625 0.859375 0.65625 2.15625q0 1.734375 -1.28125 2.953125q-1.265625 1.21875 -3.21875 1.21875q-1.765625 0 -2.921875 -1.046875q-1.15625 -1.046875 -1.328125 -2.71875z" fill-rule="nonzero"/><path fill="#f4cccc" d="m165.35432 28.929134l0 0c0 -9.09313 15.874512 -16.464567 35.456696 -16.464567c19.5822 0 35.456696 7.371437 35.456696 16.464567l0 65.85826c0 9.093132 -15.874496 16.46457 -35.456696 16.46457c-19.582184 0 -35.456696 -7.371437 -35.456696 -16.46457z" fill-rule="evenodd"/><path fill="#000000" fill-opacity="0.0" d="m236.26772 28.929134l0 0c0 9.093128 -15.874496 16.464565 -35.456696 16.464565c-19.582184 0 -35.456696 -7.371437 -35.456696 -16.464565" fill-rule="evenodd"/><path fill="#000000" fill-opacity="0.0" d="m165.35432 28.929134l0 0c0 -9.09313 15.874512 -16.464567 35.456696 -16.464567c19.5822 0 35.456696 7.371437 35.456696 16.464567l0 65.85826c0 9.093132 -15.874496 16.46457 -35.456696 16.46457c-19.582184 0 -35.456696 -7.371437 -35.456696 -16.46457z" fill-rule="evenodd"/><path stroke="#000000" stroke-width="1.0" stroke-linejoin="round" stroke-linecap="butt" d="m236.26772 28.929134l0 0c0 9.093128 -15.874496 16.464565 -35.456696 16.464565c-19.582184 0 -35.456696 -7.371437 -35.456696 -16.464565" fill-rule="evenodd"/><path stroke="#000000" stroke-width="1.0" stroke-linejoin="round" stroke-linecap="butt" d="m165.35432 28.929134l0 0c0 -9.09313 15.874512 -16.464567 35.456696 -16.464567c19.5822 0 35.456696 7.371437 35.456696 16.464567l0 65.85826c0 9.093132 -15.874496 16.46457 -35.456696 16.46457c-19.582184 0 -35.456696 -7.371437 -35.456696 -16.46457z" fill-rule="evenodd"/><path fill="#000000" d="m182.54468 77.01055l0 -13.359379l4.609375 0q1.546875 0 2.375 0.203125q1.140625 0.2500038 1.953125 0.9531288q1.0625 0.890625 1.578125 2.28125q0.53125 1.390625 0.53125 3.171875q0 1.515625 -0.359375 2.703125q-0.359375 1.171875 -0.921875 1.9375q-0.546875 0.765625 -1.203125 1.21875q-0.65625 0.4375 -1.59375 0.671875q-0.9375 0.21875 -2.140625 0.21875l-4.828125 0zm1.765625 -1.578125l2.859375 0q1.3125 0 2.0625 -0.234375q0.75 -0.25 1.203125 -0.703125q0.625 -0.625 0.96875 -1.6875q0.359375 -1.0625 0.359375 -2.578125q0 -2.09375 -0.6875 -3.21875q-0.6875 -1.125 -1.671875 -1.5q-0.703125 -0.28125 -2.28125 -0.28125l-2.8125 0l0 10.203125zm17.816696 0.390625q-0.921875 0.765625 -1.765625 1.09375q-0.828125 0.3125 -1.796875 0.3125q-1.59375 0 -2.453125 -0.78125q-0.859375 -0.78125 -0.859375 -1.984375q0 -0.71875 0.328125 -1.296875q0.328125 -0.59375 0.84375 -0.9375q0.53125 -0.359375 1.1875 -0.546875q0.46875 -0.125 1.453125 -0.25q1.984375 -0.234375 2.921875 -0.5625q0.015625 -0.34375 0.015625 -0.421875q0 -1.0 -0.46875 -1.421875q-0.625 -0.546875 -1.875 -0.546875q-1.15625 0 -1.703125 0.40625q-0.546875 0.40625 -0.8125 1.421875l-1.609375 -0.21875q0.21875 -1.015625 0.71875 -1.640625q0.5 -0.640625 1.453125 -0.984375q0.953125 -0.34375 2.1875 -0.34375q1.25 0 2.015625 0.296875q0.78125 0.28125 1.140625 0.734375q0.375 0.4375 0.515625 1.109375q0.078125 0.421875 0.078125 1.515625l0 2.1875q0 2.28125 0.109375 2.890625q0.109375 0.59375 0.40625 1.15625l-1.703125 0q-0.265625 -0.515625 -0.328125 -1.1875zm-0.140625 -3.671875q-0.890625 0.375 -2.671875 0.625q-1.015625 0.140625 -1.4375 0.328125q-0.421875 0.1875 -0.65625 0.53125q-0.21875 0.34375 -0.21875 0.78125q0 0.65625 0.5 1.09375q0.5 0.4375 1.453125 0.4375q0.9375 0 1.671875 -0.40625q0.75 -0.421875 1.09375 -1.140625q0.265625 -0.5625 0.265625 -1.640625l0 -0.609375zm7.781967 3.390625l0.234375 1.453125q-0.6875 0.140625 -1.234375 0.140625q-0.890625 0 -1.390625 -0.28125q-0.484375 -0.28125 -0.6875 -0.734375q-0.203125 -0.46875 -0.203125 -1.9375l0 -5.578125l-1.203125 0l0 -1.265625l1.203125 0l0 -2.390625l1.625 -0.9843788l0 3.3750038l1.65625 0l0 1.265625l-1.65625 0l0 5.671875q0 0.6875 0.078125 0.890625q0.09375 0.203125 0.28125 0.328125q0.203125 0.109375 0.578125 0.109375q0.265625 0 0.71875 -0.0625zm7.917679 0.28125q-0.921875 0.765625 -1.765625 1.09375q-0.828125 0.3125 -1.796875 0.3125q-1.59375 0 -2.453125 -0.78125q-0.859375 -0.78125 -0.859375 -1.984375q0 -0.71875 0.328125 -1.296875q0.328125 -0.59375 0.84375 -0.9375q0.53125 -0.359375 1.1875 -0.546875q0.46875 -0.125 1.453125 -0.25q1.984375 -0.234375 2.921875 -0.5625q0.015625 -0.34375 0.015625 -0.421875q0 -1.0 -0.46875 -1.421875q-0.625 -0.546875 -1.875 -0.546875q-1.15625 0 -1.703125 0.40625q-0.546875 0.40625 -0.8125 1.421875l-1.609375 -0.21875q0.21875 -1.015625 0.71875 -1.640625q0.5 -0.640625 1.453125 -0.984375q0.953125 -0.34375 2.1875 -0.34375q1.25 0 2.015625 0.296875q0.78125 0.28125 1.140625 0.734375q0.375 0.4375 0.515625 1.109375q0.078125 0.421875 0.078125 1.515625l0 2.1875q0 2.28125 0.109375 2.890625q0.109375 0.59375 0.40625 1.15625l-1.703125 0q-0.265625 -0.515625 -0.328125 -1.1875zm-0.140625 -3.671875q-0.890625 0.375 -2.671875 0.625q-1.015625 0.140625 -1.4375 0.328125q-0.421875 0.1875 -0.65625 0.53125q-0.21875 0.34375 -0.21875 0.78125q0 0.65625 0.5 1.09375q0.5 0.4375 1.453125 0.4375q0.9375 0 1.671875 -0.40625q0.75 -0.421875 1.09375 -1.140625q0.265625 -0.5625 0.265625 -1.640625l0 -0.609375z" fill-rule="nonzero"/><path fill="#f4cccc" d="m35.866142 152.76115l0 0c0 -9.093124 15.8745 -16.46457 35.456696 -16.46457c19.582184 0 35.456688 7.3714447 35.456688 16.46457l0 65.85826c0 9.09314 -15.874504 16.46457 -35.456688 16.46457c-19.582195 0 -35.456696 -7.3714294 -35.456696 -16.46457z" fill-rule="evenodd"/><path fill="#000000" fill-opacity="0.0" d="m106.779526 152.76115l0 0c0 9.093124 -15.874504 16.46457 -35.456688 16.46457c-19.582195 0 -35.456696 -7.3714447 -35.456696 -16.46457" fill-rule="evenodd"/><path fill="#000000" fill-opacity="0.0" d="m35.866142 152.76115l0 0c0 -9.093124 15.8745 -16.46457 35.456696 -16.46457c19.582184 0 35.456688 7.3714447 35.456688 16.46457l0 65.85826c0 9.09314 -15.874504 16.46457 -35.456688 16.46457c-19.582195 0 -35.456696 -7.3714294 -35.456696 -16.46457z" fill-rule="evenodd"/><path stroke="#000000" stroke-width="1.0" stroke-linejoin="round" stroke-linecap="butt" d="m106.779526 152.76115l0 0c0 9.093124 -15.874504 16.46457 -35.456688 16.46457c-19.582195 0 -35.456696 -7.3714447 -35.456696 -16.46457" fill-rule="evenodd"/><path stroke="#000000" stroke-width="1.0" stroke-linejoin="round" stroke-linecap="butt" d="m35.866142 152.76115l0 0c0 -9.093124 15.8745 -16.46457 35.456696 -16.46457c19.582184 0 35.456688 7.3714447 35.456688 16.46457l0 65.85826c0 9.09314 -15.874504 16.46457 -35.456688 16.46457c-19.582195 0 -35.456696 -7.3714294 -35.456696 -16.46457z" fill-rule="evenodd"/><path fill="#000000" d="m53.05649 200.84258l0 -13.359375l4.609375 0q1.546875 0 2.375 0.203125q1.140625 0.25 1.953125 0.953125q1.0625 0.890625 1.578125 2.28125q0.5312538 1.390625 0.5312538 3.171875q0 1.515625 -0.3593788 2.703125q-0.359375 1.171875 -0.921875 1.9375q-0.546875 0.765625 -1.203125 1.21875q-0.65625 0.4375 -1.59375 0.671875q-0.9375 0.21875 -2.140625 0.21875l-4.828125 0zm1.765625 -1.578125l2.859375 0q1.3125 0 2.0625 -0.234375q0.75 -0.25 1.203125 -0.703125q0.625 -0.625 0.96875 -1.6875q0.359375 -1.0625 0.359375 -2.578125q0 -2.09375 -0.6875 -3.21875q-0.6875 -1.125 -1.671875 -1.5q-0.703125 -0.28125 -2.28125 -0.28125l-2.8125 0l0 10.203125zm17.8167 0.390625q-0.921875 0.765625 -1.765625 1.09375q-0.828125 0.3125 -1.796875 0.3125q-1.59375 0 -2.453125 -0.78125q-0.859375 -0.78125 -0.859375 -1.984375q0 -0.71875 0.328125 -1.296875q0.328125 -0.59375 0.84375 -0.9375q0.53125 -0.359375 1.1875 -0.546875q0.46875 -0.125 1.453125 -0.25q1.984375 -0.234375 2.921875 -0.5625q0.015625 -0.34375 0.015625 -0.421875q0 -1.0 -0.46875 -1.421875q-0.625 -0.546875 -1.875 -0.546875q-1.15625 0 -1.703125 0.40625q-0.546875 0.40625 -0.8125 1.421875l-1.609375 -0.21875q0.21875 -1.015625 0.71875 -1.640625q0.5 -0.640625 1.453125 -0.984375q0.953125 -0.34375 2.1875 -0.34375q1.25 0 2.015625 0.296875q0.78125 0.28125 1.140625 0.734375q0.375 0.4375 0.515625 1.109375q0.078125 0.421875 0.078125 1.515625l0 2.1875q0 2.28125 0.109375 2.890625q0.109375 0.59375 0.40625 1.15625l-1.703125 0q-0.265625 -0.515625 -0.328125 -1.1875zm-0.140625 -3.671875q-0.890625 0.375 -2.671875 0.625q-1.015625 0.140625 -1.4375 0.328125q-0.421875 0.1875 -0.65625 0.53125q-0.21875 0.34375 -0.21875 0.78125q0 0.65625 0.5 1.09375q0.5 0.4375 1.453125 0.4375q0.9375 0 1.671875 -0.40625q0.75 -0.421875 1.09375 -1.140625q0.265625 -0.5625 0.265625 -1.640625l0 -0.609375zm7.781967 3.390625l0.234375 1.453125q-0.6875 0.140625 -1.234375 0.140625q-0.890625 0 -1.390625 -0.28125q-0.484375 -0.28125 -0.6875 -0.734375q-0.203125 -0.46875 -0.203125 -1.9375l0 -5.578125l-1.203125 0l0 -1.265625l1.203125 0l0 -2.390625l1.625 -0.984375l0 3.375l1.65625 0l0 1.265625l-1.65625 0l0 5.671875q0 0.6875 0.078125 0.890625q0.09375 0.203125 0.28125 0.328125q0.203125 0.109375 0.578125 0.109375q0.265625 0 0.71875 -0.0625zm7.917679 0.28125q-0.921875 0.765625 -1.765625 1.09375q-0.828125 0.3125 -1.796875 0.3125q-1.59375 0 -2.453125 -0.78125q-0.859375 -0.78125 -0.859375 -1.984375q0 -0.71875 0.328125 -1.296875q0.328125 -0.59375 0.84375 -0.9375q0.53125 -0.359375 1.1875 -0.546875q0.46875 -0.125 1.453125 -0.25q1.984375 -0.234375 2.921875 -0.5625q0.015625 -0.34375 0.015625 -0.421875q0 -1.0 -0.46875 -1.421875q-0.625 -0.546875 -1.875 -0.546875q-1.15625 0 -1.703125 0.40625q-0.546875 0.40625 -0.8125 1.421875l-1.609375 -0.21875q0.21875 -1.015625 0.71875 -1.640625q0.5 -0.640625 1.453125 -0.984375q0.953125 -0.34375 2.1875 -0.34375q1.25 0 2.015625 0.296875q0.78125 0.28125 1.140625 0.734375q0.375 0.4375 0.515625 1.109375q0.078125 0.421875 0.078125 1.515625l0 2.1875q0 2.28125 0.109375 2.890625q0.109375 0.59375 0.40625 1.15625l-1.703125 0q-0.265625 -0.515625 -0.328125 -1.1875zm-0.140625 -3.671875q-0.890625 0.375 -2.671875 0.625q-1.015625 0.140625 -1.4375 0.328125q-0.421875 0.1875 -0.65625 0.53125q-0.21875 0.34375 -0.21875 0.78125q0 0.65625 0.5 1.09375q0.5 0.4375 1.453125 0.4375q0.9375 0 1.671875 -0.40625q0.75 -0.421875 1.09375 -1.140625q0.265625 -0.5625 0.265625 -1.640625l0 -0.609375z" fill-rule="nonzero"/><path fill="#cfe2f3" d="m12.741469 270.2979l117.16536 0l0 63.08661l-117.16536 0z" fill-rule="evenodd"/><path stroke="#000000" stroke-width="1.0" stroke-linejoin="round" stroke-linecap="butt" d="m12.741469 270.2979l117.16536 0l0 63.08661l-117.16536 0z" fill-rule="evenodd"/><path fill="#000000" d="m26.01463 293.46432l1.65625 -0.140625q0.125 1.0 0.546875 1.640625q0.4375 0.640625 1.34375 1.046875q0.921875 0.390625 2.0625 0.390625q1.0 0 1.78125 -0.296875q0.78125 -0.296875 1.15625 -0.8125q0.375 -0.53125 0.375 -1.15625q0 -0.625 -0.375 -1.09375q-0.359375 -0.46875 -1.1875 -0.796875q-0.546875 -0.203125 -2.390625 -0.640625q-1.828125 -0.453125 -2.5625 -0.84375q-0.96875 -0.5 -1.4375 -1.234375q-0.46875 -0.75 -0.46875 -1.671875q0 -1.0 0.578125 -1.875q0.578125 -0.890625 1.671875 -1.34375q1.109375 -0.453125 2.453125 -0.453125q1.484375 0 2.609375 0.484375q1.140625 0.46875 1.75 1.40625q0.609375 0.921875 0.65625 2.09375l-1.6875 0.125q-0.140625 -1.265625 -0.9375 -1.90625q-0.78125 -0.65625 -2.3125 -0.65625q-1.609375 0 -2.34375 0.59375q-0.734375 0.59375 -0.734375 1.421875q0 0.71875 0.53125 1.171875q0.5 0.46875 2.65625 0.96875q2.15625 0.484375 2.953125 0.84375q1.171875 0.53125 1.71875 1.359375q0.5625 0.828125 0.5625 1.90625q0 1.0625 -0.609375 2.015625q-0.609375 0.9375 -1.75 1.46875q-1.140625 0.515625 -2.578125 0.515625q-1.8125 0 -3.046875 -0.53125q-1.21875 -0.53125 -1.921875 -1.59375q-0.6875 -1.0625 -0.71875 -2.40625zm19.459198 1.1875l1.6875 0.203125q-0.40625 1.484375 -1.484375 2.3125q-1.078125 0.8125 -2.765625 0.8125q-2.125 0 -3.375 -1.296875q-1.234375 -1.3125 -1.234375 -3.671875q0 -2.453125 1.25 -3.796875q1.265625 -1.34375 3.265625 -1.34375q1.9375 0 3.15625 1.328125q1.234375 1.3125 1.234375 3.703125q0 0.15625 0 0.4375l-7.21875 0q0.09375 1.59375 0.90625 2.453125q0.8125 0.84375 2.015625 0.84375q0.90625 0 1.546875 -0.46875q0.640625 -0.484375 1.015625 -1.515625zm-5.390625 -2.65625l5.40625 0q-0.109375 -1.21875 -0.625 -1.828125q-0.78125 -0.953125 -2.03125 -0.953125q-1.125 0 -1.90625 0.765625q-0.765625 0.75 -0.84375 2.015625zm8.485092 2.875l1.625 -0.25q0.125 0.96875 0.75 1.5q0.625 0.515625 1.75 0.515625q1.125 0 1.671875 -0.453125q0.546875 -0.46875 0.546875 -1.09375q0 -0.546875 -0.484375 -0.875q-0.328125 -0.21875 -1.671875 -0.546875q-1.8125 -0.46875 -2.515625 -0.796875q-0.6875 -0.328125 -1.046875 -0.90625q-0.359375 -0.59375 -0.359375 -1.3125q0 -0.640625 0.296875 -1.1875q0.296875 -0.5625 0.8125 -0.921875q0.375 -0.28125 1.03125 -0.46875q0.671875 -0.203125 1.421875 -0.203125q1.140625 0 2.0 0.328125q0.859375 0.328125 1.265625 0.890625q0.421875 0.5625 0.578125 1.5l-1.609375 0.21875q-0.109375 -0.75 -0.640625 -1.171875q-0.515625 -0.421875 -1.46875 -0.421875q-1.140625 0 -1.625 0.375q-0.46875 0.375 -0.46875 0.875q0 0.3125 0.1875 0.578125q0.203125 0.265625 0.640625 0.4375q0.234375 0.09375 1.4375 0.421875q1.75 0.453125 2.4375 0.75q0.6875 0.296875 1.078125 0.859375q0.390625 0.5625 0.390625 1.40625q0 0.828125 -0.484375 1.546875q-0.46875 0.71875 -1.375 1.125q-0.90625 0.390625 -2.046875 0.390625q-1.875 0 -2.875 -0.78125q-0.984375 -0.78125 -1.25 -2.328125zm9.328125 0l1.625 -0.25q0.125 0.96875 0.75 1.5q0.625 0.515625 1.75 0.515625q1.125 0 1.671875 -0.453125q0.5468712 -0.46875 0.5468712 -1.09375q0 -0.546875 -0.4843712 -0.875q-0.328125 -0.21875 -1.671875 -0.546875q-1.8125 -0.46875 -2.515625 -0.796875q-0.6875 -0.328125 -1.046875 -0.90625q-0.359375 -0.59375 -0.359375 -1.3125q0 -0.640625 0.296875 -1.1875q0.296875 -0.5625 0.8125 -0.921875q0.375 -0.28125 1.03125 -0.46875q0.671875 -0.203125 1.421875 -0.203125q1.140625 0 2.0 0.328125q0.8593712 0.328125 1.2656212 0.890625q0.421875 0.5625 0.578125 1.5l-1.6093712 0.21875q-0.109375 -0.75 -0.640625 -1.171875q-0.515625 -0.421875 -1.46875 -0.421875q-1.140625 0 -1.625 0.375q-0.46875 0.375 -0.46875 0.875q0 0.3125 0.1875 0.578125q0.203125 0.265625 0.640625 0.4375q0.234375 0.09375 1.4375 0.421875q1.75 0.453125 2.4374962 0.75q0.6875 0.296875 1.078125 0.859375q0.390625 0.5625 0.390625 1.40625q0 0.828125 -0.484375 1.546875q-0.46875 0.71875 -1.375 1.125q-0.9062462 0.390625 -2.0468712 0.390625q-1.875 0 -2.875 -0.78125q-0.984375 -0.78125 -1.25 -2.328125zm9.984371 -8.578125l0 -1.890625l1.640625 0l0 1.890625l-1.640625 0zm0 11.46875l0 -9.671875l1.640625 0l0 9.671875l-1.640625 0zm3.5354462 -4.84375q0 -2.6875 1.484375 -3.96875q1.25 -1.078125 3.046875 -1.078125q2.0000076 0 3.2656326 1.3125q1.265625 1.296875 1.265625 3.609375q0 1.859375 -0.5625 2.9375q-0.5625 1.0625 -1.640625 1.65625q-1.0625 0.59375 -2.3281326 0.59375q-2.03125 0 -3.28125 -1.296875q-1.25 -1.3125 -1.25 -3.765625zm1.6875 0q0 1.859375 0.796875 2.796875q0.8125 0.921875 2.046875 0.921875q1.2187576 0 2.0312576 -0.921875q0.8125 -0.9375 0.8125 -2.84375q0 -1.796875 -0.8125 -2.71875q-0.8125 -0.921875 -2.0312576 -0.921875q-1.234375 0 -2.046875 0.921875q-0.796875 0.90625 -0.796875 2.765625zm9.2976 4.84375l0 -9.671875l1.46875 0l0 1.375q1.0625 -1.59375 3.078125 -1.59375q0.875 0 1.609375 0.3125q0.734375 0.3125 1.09375 0.828125q0.375 0.5 0.515625 1.203125q0.09375 0.453125 0.09375 1.59375l0 5.953125l-1.640625 0l0 -5.890625q0 -1.0 -0.203125 -1.484375q-0.1875 -0.5 -0.671875 -0.796875q-0.484375 -0.296875 -1.140625 -0.296875q-1.046875 0 -1.8125 0.671875q-0.75 0.65625 -0.75 2.515625l0 5.28125l-1.640625 0zm23.715271 -1.578125l0 1.578125l-8.828125 0q-0.015625 -0.59375 0.1875 -1.140625q0.34375 -0.90625 1.078125 -1.78125q0.75 -0.875 2.15625 -2.015625q2.171875 -1.78125 2.9375 -2.828125q0.765625 -1.046875 0.765625 -1.96875q0 -0.984375 -0.703125 -1.640625q-0.6875 -0.671875 -1.8125 -0.671875q-1.1875 0 -1.90625 0.71875q-0.703125 0.703125 -0.703125 1.953125l-1.6875 -0.171875q0.171875 -1.890625 1.296875 -2.875q1.140625 -0.984375 3.03125 -0.984375q1.921875 0 3.046875 1.0625q1.125 1.0625 1.125 2.640625q0 0.796875 -0.328125 1.578125q-0.328125 0.78125 -1.09375 1.640625q-0.75 0.84375 -2.53125 2.34375q-1.46875 1.234375 -1.890625 1.6875q-0.421875 0.4375 -0.6875 0.875l6.546875 0zm8.531967 0.390625q-0.921875 0.765625 -1.765625 1.09375q-0.828125 0.3125 -1.796875 0.3125q-1.59375 0 -2.453125 -0.78125q-0.859375 -0.78125 -0.859375 -1.984375q0 -0.71875 0.328125 -1.296875q0.328125 -0.59375 0.84375 -0.9375q0.53125 -0.359375 1.1875 -0.546875q0.46875 -0.125 1.453125 -0.25q1.984375 -0.234375 2.921875 -0.5625q0.015625 -0.34375 0.015625 -0.421875q0 -1.0 -0.46875 -1.421875q-0.625 -0.546875 -1.875 -0.546875q-1.15625 0 -1.703125 0.40625q-0.546875 0.40625 -0.8125 1.421875l-1.609375 -0.21875q0.21875 -1.015625 0.71875 -1.640625q0.5 -0.640625 1.453125 -0.984375q0.953125 -0.34375 2.1875 -0.34375q1.25 0 2.015625 0.296875q0.78125 0.28125 1.140625 0.734375q0.375 0.4375 0.515625 1.109375q0.078125 0.421875 0.078125 1.515625l0 2.1875q0 2.28125 0.109375 2.890625q0.109375 0.59375 0.40625 1.15625l-1.703125 0q-0.265625 -0.515625 -0.328125 -1.1875zm-0.140625 -3.671875q-0.890625 0.375 -2.671875 0.625q-1.015625 0.140625 -1.4375 0.328125q-0.421875 0.1875 -0.65625 0.53125q-0.21875 0.34375 -0.21875 0.78125q0 0.65625 0.5 1.09375q0.5 0.4375 1.453125 0.4375q0.9375 0 1.671875 -0.40625q0.75 -0.421875 1.09375 -1.140625q0.265625 -0.5625 0.265625 -1.640625l0 -0.609375z" fill-rule="nonzero"/><path fill="#000000" d="m55.435375 311.18307l-1.171875 0.9375q-1.125 -0.84375 -2.09375 -0.84375q-0.796875 0 -1.171875 0.4375q-0.375 0.421875 -0.375 0.921875q0 0.625 0.546875 1.0625q0.546875 0.421875 1.609375 0.421875q0.140625 0 0.453125 -0.015625l0 1.375q-0.28125 -0.015625 -0.4375 -0.015625q-1.296875 0 -1.8125 0.515625q-0.5 0.5 -0.5 1.125q0 0.640625 0.5 1.09375q0.515625 0.4375 1.21875 0.4375q1.296875 0 2.40625 -1.203125l1.171875 1.0q-1.453125 1.546875 -3.625 1.546875q-1.703125 0 -2.546875 -0.859375q-0.828125 -0.875 -0.828125 -2.015625q0 -1.65625 1.609375 -2.34375q-1.34375 -0.75 -1.34375 -2.09375q0 -1.078125 0.78125 -1.9375q0.796875 -0.859375 2.4375 -0.859375q1.890625 0 3.171875 1.3125z" fill-rule="nonzero"/><path fill="#000000" d="m62.471096 325.71432l0 1.046875l-5.890625 0q-0.015625 -0.390625 0.125 -0.765625q0.234375 -0.59375 0.71875 -1.171875q0.5 -0.59375 1.4375 -1.359375q1.453125 -1.1875 1.953125 -1.875q0.515625 -0.703125 0.515625 -1.3125q0 -0.65625 -0.46875 -1.09375q-0.453125 -0.453125 -1.203125 -0.453125q-0.796875 0 -1.265625 0.46875q-0.46875 0.46875 -0.484375 1.3125l-1.125 -0.109375q0.125 -1.265625 0.875 -1.921875q0.75 -0.65625 2.015625 -0.65625q1.28125 0 2.03125 0.71875q0.75 0.703125 0.75 1.75q0 0.53125 -0.21875 1.046875q-0.21875 0.515625 -0.734375 1.09375q-0.5 0.5625 -1.671875 1.5625q-0.984375 0.828125 -1.265625 1.125q-0.28125 0.296875 -0.46875 0.59375l4.375 0z" fill-rule="nonzero"/><path fill="#000000" d="m78.16519 311.90182l-8.828133 0l0 -1.515625l8.828133 0l0 1.515625zm0 4.0625l-8.828133 0l0 -1.53125l8.828133 0l0 1.53125zm13.172012 3.796875l-1.640625 0l0 -10.453125q-0.59375 0.5625 -1.5625 1.140625q-0.953125 0.5625 -1.71875 0.84375l0 -1.59375q1.375 -0.640625 2.40625 -1.5625q1.03125 -0.921875 1.453125 -1.78125l1.0625 0l0 13.40625z" fill-rule="nonzero"/><path fill="#cfe2f3" d="m272.70734 270.2979l115.18112 0l0 63.08661l-115.18112 0z" fill-rule="evenodd"/><path stroke="#000000" stroke-width="1.0" stroke-linejoin="round" stroke-linecap="butt" d="m272.70734 270.2979l115.18112 0l0 63.08661l-115.18112 0z" fill-rule="evenodd"/><path fill="#000000" d="m284.98837 293.46432l1.65625 -0.140625q0.125 1.0 0.546875 1.640625q0.4375 0.640625 1.34375 1.046875q0.921875 0.390625 2.0625 0.390625q1.0 0 1.78125 -0.296875q0.78125 -0.296875 1.15625 -0.8125q0.375 -0.53125 0.375 -1.15625q0 -0.625 -0.375 -1.09375q-0.359375 -0.46875 -1.1875 -0.796875q-0.546875 -0.203125 -2.390625 -0.640625q-1.828125 -0.453125 -2.5625 -0.84375q-0.96875 -0.5 -1.4375 -1.234375q-0.46875 -0.75 -0.46875 -1.671875q0 -1.0 0.578125 -1.875q0.578125 -0.890625 1.671875 -1.34375q1.109375 -0.453125 2.453125 -0.453125q1.484375 0 2.609375 0.484375q1.140625 0.46875 1.75 1.40625q0.609375 0.921875 0.65625 2.09375l-1.6875 0.125q-0.140625 -1.265625 -0.9375 -1.90625q-0.78125 -0.65625 -2.3125 -0.65625q-1.609375 0 -2.34375 0.59375q-0.734375 0.59375 -0.734375 1.421875q0 0.71875 0.53125 1.171875q0.5 0.46875 2.65625 0.96875q2.15625 0.484375 2.953125 0.84375q1.171875 0.53125 1.71875 1.359375q0.5625 0.828125 0.5625 1.90625q0 1.0625 -0.609375 2.015625q-0.609375 0.9375 -1.75 1.46875q-1.140625 0.515625 -2.578125 0.515625q-1.8125 0 -3.046875 -0.53125q-1.21875 -0.53125 -1.921875 -1.59375q-0.6875 -1.0625 -0.71875 -2.40625zm19.459198 1.1875l1.6875 0.203125q-0.40625 1.484375 -1.484375 2.3125q-1.078125 0.8125 -2.765625 0.8125q-2.125 0 -3.375 -1.296875q-1.234375 -1.3125 -1.234375 -3.671875q0 -2.453125 1.25 -3.796875q1.265625 -1.34375 3.265625 -1.34375q1.9375 0 3.15625 1.328125q1.234375 1.3125 1.234375 3.703125q0 0.15625 0 0.4375l-7.21875 0q0.09375 1.59375 0.90625 2.453125q0.8125 0.84375 2.015625 0.84375q0.90625 0 1.546875 -0.46875q0.640625 -0.484375 1.015625 -1.515625zm-5.390625 -2.65625l5.40625 0q-0.109375 -1.21875 -0.625 -1.828125q-0.78125 -0.953125 -2.03125 -0.953125q-1.125 0 -1.90625 0.765625q-0.765625 0.75 -0.84375 2.015625zm8.485107 2.875l1.625 -0.25q0.125 0.96875 0.75 1.5q0.625 0.515625 1.75 0.515625q1.125 0 1.671875 -0.453125q0.546875 -0.46875 0.546875 -1.09375q0 -0.546875 -0.484375 -0.875q-0.328125 -0.21875 -1.671875 -0.546875q-1.8125 -0.46875 -2.515625 -0.796875q-0.6875 -0.328125 -1.046875 -0.90625q-0.359375 -0.59375 -0.359375 -1.3125q0 -0.640625 0.296875 -1.1875q0.296875 -0.5625 0.8125 -0.921875q0.375 -0.28125 1.03125 -0.46875q0.671875 -0.203125 1.421875 -0.203125q1.140625 0 2.0 0.328125q0.859375 0.328125 1.265625 0.890625q0.421875 0.5625 0.578125 1.5l-1.609375 0.21875q-0.109375 -0.75 -0.640625 -1.171875q-0.515625 -0.421875 -1.46875 -0.421875q-1.140625 0 -1.625 0.375q-0.46875 0.375 -0.46875 0.875q0 0.3125 0.1875 0.578125q0.203125 0.265625 0.640625 0.4375q0.234375 0.09375 1.4375 0.421875q1.75 0.453125 2.4375 0.75q0.6875 0.296875 1.078125 0.859375q0.390625 0.5625 0.390625 1.40625q0 0.828125 -0.484375 1.546875q-0.46875 0.71875 -1.375 1.125q-0.90625 0.390625 -2.046875 0.390625q-1.875 0 -2.875 -0.78125q-0.984375 -0.78125 -1.25 -2.328125zm9.328125 0l1.625 -0.25q0.125 0.96875 0.75 1.5q0.625 0.515625 1.75 0.515625q1.125 0 1.671875 -0.453125q0.546875 -0.46875 0.546875 -1.09375q0 -0.546875 -0.484375 -0.875q-0.328125 -0.21875 -1.671875 -0.546875q-1.8125 -0.46875 -2.515625 -0.796875q-0.6875 -0.328125 -1.046875 -0.90625q-0.359375 -0.59375 -0.359375 -1.3125q0 -0.640625 0.296875 -1.1875q0.296875 -0.5625 0.8125 -0.921875q0.375 -0.28125 1.03125 -0.46875q0.671875 -0.203125 1.421875 -0.203125q1.140625 0 2.0 0.328125q0.859375 0.328125 1.265625 0.890625q0.421875 0.5625 0.578125 1.5l-1.609375 0.21875q-0.109375 -0.75 -0.640625 -1.171875q-0.515625 -0.421875 -1.46875 -0.421875q-1.140625 0 -1.625 0.375q-0.46875 0.375 -0.46875 0.875q0 0.3125 0.1875 0.578125q0.203125 0.265625 0.640625 0.4375q0.234375 0.09375 1.4375 0.421875q1.75 0.453125 2.4375 0.75q0.6875 0.296875 1.078125 0.859375q0.390625 0.5625 0.390625 1.40625q0 0.828125 -0.484375 1.546875q-0.46875 0.71875 -1.375 1.125q-0.90625 0.390625 -2.046875 0.390625q-1.875 0 -2.875 -0.78125q-0.984375 -0.78125 -1.25 -2.328125zm9.984375 -8.578125l0 -1.890625l1.640625 0l0 1.890625l-1.640625 0zm0 11.46875l0 -9.671875l1.640625 0l0 9.671875l-1.640625 0zm3.535431 -4.84375q0 -2.6875 1.484375 -3.96875q1.25 -1.078125 3.046875 -1.078125q2.0 0 3.265625 1.3125q1.265625 1.296875 1.265625 3.609375q0 1.859375 -0.5625 2.9375q-0.5625 1.0625 -1.640625 1.65625q-1.0625 0.59375 -2.328125 0.59375q-2.03125 0 -3.28125 -1.296875q-1.25 -1.3125 -1.25 -3.765625zm1.6875 0q0 1.859375 0.796875 2.796875q0.8125 0.921875 2.046875 0.921875q1.21875 0 2.03125 -0.921875q0.8125 -0.9375 0.8125 -2.84375q0 -1.796875 -0.8125 -2.71875q-0.8125 -0.921875 -2.03125 -0.921875q-1.234375 0 -2.046875 0.921875q-0.796875 0.90625 -0.796875 2.765625zm9.297607 4.84375l0 -9.671875l1.46875 0l0 1.375q1.0625 -1.59375 3.078125 -1.59375q0.875 0 1.609375 0.3125q0.734375 0.3125 1.09375 0.828125q0.375 0.5 0.515625 1.203125q0.09375 0.453125 0.09375 1.59375l0 5.953125l-1.640625 0l0 -5.890625q0 -1.0 -0.203125 -1.484375q-0.1875 -0.5 -0.671875 -0.796875q-0.484375 -0.296875 -1.140625 -0.296875q-1.046875 0 -1.8125 0.671875q-0.75 0.65625 -0.75 2.515625l0 5.28125l-1.640625 0zm23.715271 -1.578125l0 1.578125l-8.828125 0q-0.015625 -0.59375 0.1875 -1.140625q0.34375 -0.90625 1.078125 -1.78125q0.75 -0.875 2.15625 -2.015625q2.171875 -1.78125 2.9375 -2.828125q0.765625 -1.046875 0.765625 -1.96875q0 -0.984375 -0.703125 -1.640625q-0.6875 -0.671875 -1.8125 -0.671875q-1.1875 0 -1.90625 0.71875q-0.703125 0.703125 -0.703125 1.953125l-1.6875 -0.171875q0.171875 -1.890625 1.296875 -2.875q1.140625 -0.984375 3.03125 -0.984375q1.921875 0 3.046875 1.0625q1.125 1.0625 1.125 2.640625q0 0.796875 -0.328125 1.578125q-0.328125 0.78125 -1.09375 1.640625q-0.75 0.84375 -2.53125 2.34375q-1.46875 1.234375 -1.890625 1.6875q-0.421875 0.4375 -0.6875 0.875l6.546875 0zm3.719452 1.578125l-1.515625 0l0 -13.359375l1.640625 0l0 4.765625q1.046875 -1.296875 2.65625 -1.296875q0.890625 0 1.6875 0.359375q0.796875 0.359375 1.3125 1.015625q0.515625 0.640625 0.796875 1.5625q0.296875 0.921875 0.296875 1.96875q0 2.484375 -1.234375 3.84375q-1.21875 1.359375 -2.953125 1.359375q-1.703125 0 -2.6875 -1.4375l0 1.21875zm-0.015625 -4.90625q0 1.734375 0.484375 2.515625q0.765625 1.265625 2.09375 1.265625q1.078125 0 1.859375 -0.9375q0.78125 -0.9375 0.78125 -2.78125q0 -1.890625 -0.75 -2.796875q-0.75 -0.90625 -1.828125 -0.90625q-1.0625 0 -1.859375 0.9375q-0.78125 0.9375 -0.78125 2.703125z" fill-rule="nonzero"/><path fill="#000000" d="m314.40912 311.18307l-1.171875 0.9375q-1.125 -0.84375 -2.09375 -0.84375q-0.796875 0 -1.171875 0.4375q-0.375 0.421875 -0.375 0.921875q0 0.625 0.546875 1.0625q0.546875 0.421875 1.609375 0.421875q0.140625 0 0.453125 -0.015625l0 1.375q-0.28125 -0.015625 -0.4375 -0.015625q-1.296875 0 -1.8125 0.515625q-0.5 0.5 -0.5 1.125q0 0.640625 0.5 1.09375q0.515625 0.4375 1.21875 0.4375q1.296875 0 2.40625 -1.203125l1.171875 1.0q-1.453125 1.546875 -3.625 1.546875q-1.703125 0 -2.546875 -0.859375q-0.828125 -0.875 -0.828125 -2.015625q0 -1.65625 1.609375 -2.34375q-1.34375 -0.75 -1.34375 -2.09375q0 -1.078125 0.78125 -1.9375q0.796875 -0.859375 2.4375 -0.859375q1.890625 0 3.171875 1.3125z" fill-rule="nonzero"/><path fill="#000000" d="m321.44485 325.71432l0 1.046875l-5.890625 0q-0.015625 -0.390625 0.125 -0.765625q0.234375 -0.59375 0.71875 -1.171875q0.5 -0.59375 1.4375 -1.359375q1.453125 -1.1875 1.953125 -1.875q0.515625 -0.703125 0.515625 -1.3125q0 -0.65625 -0.46875 -1.09375q-0.453125 -0.453125 -1.203125 -0.453125q-0.796875 0 -1.265625 0.46875q-0.46875 0.46875 -0.484375 1.3125l-1.125 -0.109375q0.125 -1.265625 0.875 -1.921875q0.75 -0.65625 2.015625 -0.65625q1.28125 0 2.03125 0.71875q0.75 0.703125 0.75 1.75q0 0.53125 -0.21875 1.046875q-0.21875 0.515625 -0.734375 1.09375q-0.5 0.5625 -1.671875 1.5625q-0.984375 0.828125 -1.265625 1.125q-0.28125 0.296875 -0.46875 0.59375l4.375 0z" fill-rule="nonzero"/><path fill="#000000" d="m337.13895 311.90182l-8.828125 0l0 -1.515625l8.828125 0l0 1.515625zm0 4.0625l-8.828125 0l0 -1.53125l8.828125 0l0 1.53125zm13.171997 3.796875l-1.640625 0l0 -10.453125q-0.59375 0.5625 -1.5625 1.140625q-0.953125 0.5625 -1.71875 0.84375l0 -1.59375q1.375 -0.640625 2.40625 -1.5625q1.03125 -0.921875 1.453125 -1.78125l1.0625 0l0 13.40625z" fill-rule="nonzero"/><path fill="#f4cccc" d="m294.8399 152.76115l0 0c0 -9.093124 15.874481 -16.46457 35.456696 -16.46457c19.582184 0 35.456696 7.3714447 35.456696 16.46457l0 65.85826c0 9.09314 -15.874512 16.46457 -35.456696 16.46457c-19.582214 0 -35.456696 -7.3714294 -35.456696 -16.46457z" fill-rule="evenodd"/><path fill="#000000" fill-opacity="0.0" d="m365.7533 152.76115l0 0c0 9.093124 -15.874512 16.46457 -35.456696 16.46457c-19.582214 0 -35.456696 -7.3714447 -35.456696 -16.46457" fill-rule="evenodd"/><path fill="#000000" fill-opacity="0.0" d="m294.8399 152.76115l0 0c0 -9.093124 15.874481 -16.46457 35.456696 -16.46457c19.582184 0 35.456696 7.3714447 35.456696 16.46457l0 65.85826c0 9.09314 -15.874512 16.46457 -35.456696 16.46457c-19.582214 0 -35.456696 -7.3714294 -35.456696 -16.46457z" fill-rule="evenodd"/><path stroke="#000000" stroke-width="1.0" stroke-linejoin="round" stroke-linecap="butt" d="m365.7533 152.76115l0 0c0 9.093124 -15.874512 16.46457 -35.456696 16.46457c-19.582214 0 -35.456696 -7.3714447 -35.456696 -16.46457" fill-rule="evenodd"/><path stroke="#000000" stroke-width="1.0" stroke-linejoin="round" stroke-linecap="butt" d="m294.8399 152.76115l0 0c0 -9.093124 15.874481 -16.46457 35.456696 -16.46457c19.582184 0 35.456696 7.3714447 35.456696 16.46457l0 65.85826c0 9.09314 -15.874512 16.46457 -35.456696 16.46457c-19.582214 0 -35.456696 -7.3714294 -35.456696 -16.46457z" fill-rule="evenodd"/><path fill="#000000" d="m312.03024 200.84258l0 -13.359375l4.609375 0q1.546875 0 2.375 0.203125q1.140625 0.25 1.953125 0.953125q1.0625 0.890625 1.578125 2.28125q0.53125 1.390625 0.53125 3.171875q0 1.515625 -0.359375 2.703125q-0.359375 1.171875 -0.921875 1.9375q-0.546875 0.765625 -1.203125 1.21875q-0.65625 0.4375 -1.59375 0.671875q-0.9375 0.21875 -2.140625 0.21875l-4.828125 0zm1.765625 -1.578125l2.859375 0q1.3125 0 2.0625 -0.234375q0.75 -0.25 1.203125 -0.703125q0.625 -0.625 0.96875 -1.6875q0.359375 -1.0625 0.359375 -2.578125q0 -2.09375 -0.6875 -3.21875q-0.6875 -1.125 -1.671875 -1.5q-0.703125 -0.28125 -2.28125 -0.28125l-2.8125 0l0 10.203125zm17.816711 0.390625q-0.921875 0.765625 -1.765625 1.09375q-0.828125 0.3125 -1.796875 0.3125q-1.59375 0 -2.453125 -0.78125q-0.859375 -0.78125 -0.859375 -1.984375q0 -0.71875 0.328125 -1.296875q0.328125 -0.59375 0.84375 -0.9375q0.53125 -0.359375 1.1875 -0.546875q0.46875 -0.125 1.453125 -0.25q1.984375 -0.234375 2.921875 -0.5625q0.015625 -0.34375 0.015625 -0.421875q0 -1.0 -0.46875 -1.421875q-0.625 -0.546875 -1.875 -0.546875q-1.15625 0 -1.703125 0.40625q-0.546875 0.40625 -0.8125 1.421875l-1.609375 -0.21875q0.21875 -1.015625 0.71875 -1.640625q0.5 -0.640625 1.453125 -0.984375q0.953125 -0.34375 2.1875 -0.34375q1.25 0 2.015625 0.296875q0.78125 0.28125 1.140625 0.734375q0.375 0.4375 0.515625 1.109375q0.078125 0.421875 0.078125 1.515625l0 2.1875q0 2.28125 0.109375 2.890625q0.109375 0.59375 0.40625 1.15625l-1.703125 0q-0.265625 -0.515625 -0.328125 -1.1875zm-0.140625 -3.671875q-0.890625 0.375 -2.671875 0.625q-1.015625 0.140625 -1.4375 0.328125q-0.421875 0.1875 -0.65625 0.53125q-0.21875 0.34375 -0.21875 0.78125q0 0.65625 0.5 1.09375q0.5 0.4375 1.453125 0.4375q0.9375 0 1.671875 -0.40625q0.75 -0.421875 1.09375 -1.140625q0.265625 -0.5625 0.265625 -1.640625l0 -0.609375zm7.781952 3.390625l0.234375 1.453125q-0.6875 0.140625 -1.234375 0.140625q-0.890625 0 -1.390625 -0.28125q-0.484375 -0.28125 -0.6875 -0.734375q-0.203125 -0.46875 -0.203125 -1.9375l0 -5.578125l-1.203125 0l0 -1.265625l1.203125 0l0 -2.390625l1.625 -0.984375l0 3.375l1.65625 0l0 1.265625l-1.65625 0l0 5.671875q0 0.6875 0.078125 0.890625q0.09375 0.203125 0.28125 0.328125q0.203125 0.109375 0.578125 0.109375q0.265625 0 0.71875 -0.0625zm7.917694 0.28125q-0.921875 0.765625 -1.765625 1.09375q-0.828125 0.3125 -1.796875 0.3125q-1.59375 0 -2.453125 -0.78125q-0.859375 -0.78125 -0.859375 -1.984375q0 -0.71875 0.328125 -1.296875q0.328125 -0.59375 0.84375 -0.9375q0.53125 -0.359375 1.1875 -0.546875q0.46875 -0.125 1.453125 -0.25q1.984375 -0.234375 2.921875 -0.5625q0.015625 -0.34375 0.015625 -0.421875q0 -1.0 -0.46875 -1.421875q-0.625 -0.546875 -1.875 -0.546875q-1.15625 0 -1.703125 0.40625q-0.546875 0.40625 -0.8125 1.421875l-1.609375 -0.21875q0.21875 -1.015625 0.71875 -1.640625q0.5 -0.640625 1.453125 -0.984375q0.953125 -0.34375 2.1875 -0.34375q1.25 0 2.015625 0.296875q0.78125 0.28125 1.140625 0.734375q0.375 0.4375 0.515625 1.109375q0.078125 0.421875 0.078125 1.515625l0 2.1875q0 2.28125 0.109375 2.890625q0.109375 0.59375 0.40625 1.15625l-1.703125 0q-0.265625 -0.515625 -0.328125 -1.1875zm-0.140625 -3.671875q-0.890625 0.375 -2.671875 0.625q-1.015625 0.140625 -1.4375 0.328125q-0.421875 0.1875 -0.65625 0.53125q-0.21875 0.34375 -0.21875 0.78125q0 0.65625 0.5 1.09375q0.5 0.4375 1.453125 0.4375q0.9375 0 1.671875 -0.40625q0.75 -0.421875 1.09375 -1.140625q0.265625 -0.5625 0.265625 -1.640625l0 -0.609375z" fill-rule="nonzero"/><path fill="#ffffff" d="m290.6916 126.40026l79.212616 0l0 71.90551l-79.212616 0z" fill-rule="evenodd"/><path fill="#ffffff" d="m31.717848 198.29002l79.21259 0l0 41.07086l-79.21259 0z" fill-rule="evenodd"/><path fill="#000000" fill-opacity="0.0" d="m200.81102 111.25197l0 31.559052" fill-rule="evenodd"/><path stroke="#000000" stroke-width="1.0" stroke-linejoin="round" stroke-linecap="butt" d="m200.81102 114.679054l0 24.704887" fill-rule="evenodd"/><path fill="#000000" stroke="#000000" stroke-width="1.0" stroke-linecap="butt" d="m200.81102 114.679054l1.124588 1.124588l-1.124588 -3.089775l-1.1245728 3.089775z" fill-rule="evenodd"/><path fill="#000000" stroke="#000000" stroke-width="1.0" stroke-linecap="butt" d="m200.81102 139.38394l-1.1245728 -1.124588l1.1245728 3.0897675l1.124588 -3.0897675z" fill-rule="evenodd"/><path fill="#000000" fill-opacity="0.0" d="m330.2979 235.0853l0 35.212616" fill-rule="evenodd"/><path stroke="#000000" stroke-width="1.0" stroke-linejoin="round" stroke-linecap="butt" d="m330.2979 238.51239l0 28.358429" fill-rule="evenodd"/><path fill="#000000" stroke="#000000" stroke-width="1.0" stroke-linecap="butt" d="m330.2979 238.51239l1.1245728 1.124588l-1.1245728 -3.0897675l-1.1246033 3.0897675z" fill-rule="evenodd"/><path fill="#000000" stroke="#000000" stroke-width="1.0" stroke-linecap="butt" d="m330.2979 266.87082l-1.1246033 -1.1246033l1.1246033 3.0897827l1.1245728 -3.0897827z" fill-rule="evenodd"/><path fill="#000000" fill-opacity="0.0" d="m71.32415 198.29002l0 72.000015" fill-rule="evenodd"/><path stroke="#000000" stroke-width="1.0" stroke-linejoin="round" stroke-linecap="butt" d="m71.32415 201.7171l0 65.14584" fill-rule="evenodd"/><path fill="#000000" stroke="#000000" stroke-width="1.0" stroke-linecap="butt" d="m71.32415 201.71712l1.1245804 1.1245728l-1.1245804 -3.0897675l-1.124588 3.0897675z" fill-rule="evenodd"/><path fill="#000000" stroke="#000000" stroke-width="1.0" stroke-linecap="butt" d="m71.32415 266.86295l-1.124588 -1.1246033l1.124588 3.0897827l1.1245804 -3.0897827z" fill-rule="evenodd"/><path fill="#000000" fill-opacity="0.0" d="m200.81102 205.89896l-70.89763 95.93701" fill-rule="evenodd"/><path stroke="#000000" stroke-width="1.0" stroke-linejoin="round" stroke-linecap="butt" stroke-dasharray="4.0,3.0" d="m200.81102 205.89896l-67.331696 91.11163" fill-rule="evenodd"/><path fill="#000000" stroke="#000000" stroke-width="1.0" stroke-linecap="butt" d="m132.15097 296.02893l-1.3687439 4.631317l4.025467 -2.6679688z" fill-rule="evenodd"/><path fill="#000000" fill-opacity="0.0" d="m200.81102 205.89896l71.9055 95.93701" fill-rule="evenodd"/><path stroke="#000000" stroke-width="1.0" stroke-linejoin="round" stroke-linecap="butt" stroke-dasharray="4.0,3.0" d="m200.81102 205.89896l68.30702 91.135864" fill-rule="evenodd"/><path fill="#000000" stroke="#000000" stroke-width="1.0" stroke-linecap="butt" d="m267.79636 298.02545l4.043396 2.6407166l-1.3999939 -4.6219788z" fill-rule="evenodd"/><path fill="#fce5cd" d="m149.57874 231.50262l106.61417 0l0 31.559052l-106.61417 0z" fill-rule="evenodd"/><path stroke="#000000" stroke-width="1.0" stroke-linejoin="round" stroke-linecap="butt" stroke-dasharray="4.0,3.0" d="m149.57874 231.50262l106.61417 0l0 31.559052l-106.61417 0z" fill-rule="evenodd"/><path fill="#000000" d="m158.39888 244.52216l0 -7.625l2.875 0q0.75 0 1.15625 0.0625q0.5625 0.09375 0.9375 0.359375q0.390625 0.265625 0.609375 0.75q0.234375 0.46875 0.234375 1.03125q0 0.96875 -0.625 1.65625q-0.609375 0.671875 -2.234375 0.671875l-1.953125 0l0 3.09375l-1.0 0zm1.0 -4.0l1.96875 0q0.984375 0 1.390625 -0.359375q0.421875 -0.375 0.421875 -1.03125q0 -0.484375 -0.25 -0.8125q-0.234375 -0.34375 -0.640625 -0.453125q-0.25 -0.078125 -0.9375 -0.078125l-1.953125 0l0 2.734375zm9.5920105 3.3125q-0.53125 0.453125 -1.015625 0.640625q-0.46875 0.171875 -1.015625 0.171875q-0.921875 0 -1.40625 -0.4375q-0.484375 -0.453125 -0.484375 -1.140625q0 -0.40625 0.171875 -0.734375q0.1875 -0.34375 0.484375 -0.546875q0.3125 -0.203125 0.6875 -0.3125q0.265625 -0.0625 0.828125 -0.140625q1.125 -0.125 1.671875 -0.3125q0 -0.203125 0 -0.25q0 -0.578125 -0.265625 -0.8125q-0.359375 -0.3125 -1.0625 -0.3125q-0.65625 0 -0.984375 0.234375q-0.3125 0.234375 -0.453125 0.8125l-0.921875 -0.125q0.125 -0.578125 0.40625 -0.9375q0.296875 -0.375 0.828125 -0.5625q0.546875 -0.203125 1.25 -0.203125q0.71875 0 1.15625 0.171875q0.4375 0.171875 0.640625 0.421875q0.21875 0.25 0.296875 0.640625q0.046875 0.234375 0.046875 0.859375l0 1.25q0 1.296875 0.0625 1.65625q0.0625 0.34375 0.234375 0.65625l-0.96875 0q-0.15625 -0.296875 -0.1875 -0.6875zm-0.078125 -2.078125q-0.515625 0.203125 -1.53125 0.34375q-0.578125 0.078125 -0.828125 0.1875q-0.234375 0.109375 -0.359375 0.3125q-0.125 0.1875 -0.125 0.4375q0 0.375 0.28125 0.625q0.28125 0.25 0.828125 0.25q0.53125 0 0.953125 -0.234375q0.421875 -0.234375 0.625 -0.65625q0.15625 -0.3125 0.15625 -0.9375l0 -0.328125zm2.3796234 2.765625l0 -5.53125l0.84375 0l0 0.84375q0.328125 -0.59375 0.59375 -0.78125q0.28125 -0.1875 0.609375 -0.1875q0.46875 0 0.953125 0.3125l-0.3125 0.859375q-0.34375 -0.203125 -0.6875 -0.203125q-0.3125 0 -0.5625 0.1875q-0.234375 0.1875 -0.34375 0.515625q-0.15625 0.5 -0.15625 1.09375l0 2.890625l-0.9375 0zm7.1736145 -0.6875q-0.53125 0.453125 -1.015625 0.640625q-0.46875 0.171875 -1.015625 0.171875q-0.921875 0 -1.40625 -0.4375q-0.484375 -0.453125 -0.484375 -1.140625q0 -0.40625 0.171875 -0.734375q0.1875 -0.34375 0.484375 -0.546875q0.3125 -0.203125 0.6875 -0.3125q0.265625 -0.0625 0.828125 -0.140625q1.125 -0.125 1.671875 -0.3125q0 -0.203125 0 -0.25q0 -0.578125 -0.265625 -0.8125q-0.359375 -0.3125 -1.0625 -0.3125q-0.65625 0 -0.984375 0.234375q-0.3125 0.234375 -0.453125 0.8125l-0.921875 -0.125q0.125 -0.578125 0.40625 -0.9375q0.296875 -0.375 0.828125 -0.5625q0.546875 -0.203125 1.25 -0.203125q0.71875 0 1.15625 0.171875q0.4375 0.171875 0.640625 0.421875q0.21875 0.25 0.296875 0.640625q0.046875 0.234375 0.046875 0.859375l0 1.25q0 1.296875 0.0625 1.65625q0.0625 0.34375 0.234375 0.65625l-0.96875 0q-0.15625 -0.296875 -0.1875 -0.6875zm-0.078125 -2.078125q-0.515625 0.203125 -1.53125 0.34375q-0.578125 0.078125 -0.828125 0.1875q-0.234375 0.109375 -0.359375 0.3125q-0.125 0.1875 -0.125 0.4375q0 0.375 0.28125 0.625q0.28125 0.25 0.828125 0.25q0.53125 0 0.953125 -0.234375q0.421875 -0.234375 0.625 -0.65625q0.15625 -0.3125 0.15625 -0.9375l0 -0.328125zm2.3796234 2.765625l0 -7.625l0.9375 0l0 7.625l-0.9375 0zm2.3674774 0l0 -7.625l0.9375 0l0 7.625l-0.9375 0zm6.1643524 -1.78125l0.96875 0.125q-0.234375 0.84375 -0.859375 1.3125q-0.609375 0.46875 -1.578125 0.46875q-1.203125 0 -1.921875 -0.75q-0.703125 -0.75 -0.703125 -2.09375q0 -1.390625 0.71875 -2.15625q0.71875 -0.78125 1.859375 -0.78125q1.109375 0 1.8125 0.765625q0.703125 0.75 0.703125 2.125q0 0.078125 0 0.234375l-4.125 0q0.046875 0.921875 0.515625 1.40625q0.46875 0.484375 1.15625 0.484375q0.515625 0 0.875 -0.265625q0.359375 -0.28125 0.578125 -0.875zm-3.078125 -1.515625l3.09375 0q-0.0625 -0.6875 -0.359375 -1.046875q-0.453125 -0.53125 -1.15625 -0.53125q-0.640625 0 -1.09375 0.4375q-0.4375 0.421875 -0.484375 1.140625zm5.2077484 3.296875l0 -7.625l0.9375 0l0 7.625l-0.9375 0zm5.34375 2.125l0 -7.65625l0.859375 0l0 0.71875q0.296875 -0.421875 0.671875 -0.625q0.390625 -0.21875 0.921875 -0.21875q0.703125 0 1.25 0.375q0.546875 0.359375 0.8125 1.03125q0.28125 0.65625 0.28125 1.453125q0 0.84375 -0.3125 1.53125q-0.296875 0.671875 -0.875 1.03125q-0.578125 0.359375 -1.21875 0.359375q-0.46875 0 -0.84375 -0.1875q-0.375 -0.203125 -0.609375 -0.515625l0 2.703125l-0.9375 0zm0.84375 -4.859375q0 1.0625 0.4375 1.578125q0.4375 0.515625 1.046875 0.515625q0.625 0 1.0625 -0.53125q0.453125 -0.53125 0.453125 -1.640625q0 -1.046875 -0.4375 -1.578125q-0.4375 -0.53125 -1.046875 -0.53125q-0.59375 0 -1.0625 0.5625q-0.453125 0.5625 -0.453125 1.625zm8.692123 2.046875q-0.53125 0.453125 -1.015625 0.640625q-0.46875 0.171875 -1.015625 0.171875q-0.921875 0 -1.40625 -0.4375q-0.484375 -0.453125 -0.484375 -1.140625q0 -0.40625 0.171875 -0.734375q0.1875 -0.34375 0.484375 -0.546875q0.3125 -0.203125 0.6875 -0.3125q0.265625 -0.0625 0.828125 -0.140625q1.125 -0.125 1.671875 -0.3125q0 -0.203125 0 -0.25q0 -0.578125 -0.265625 -0.8125q-0.359375 -0.3125 -1.0625 -0.3125q-0.65625 0 -0.984375 0.234375q-0.3125 0.234375 -0.453125 0.8125l-0.921875 -0.125q0.125 -0.578125 0.40625 -0.9375q0.296875 -0.375 0.828125 -0.5625q0.546875 -0.203125 1.25 -0.203125q0.71875 0 1.15625 0.171875q0.4375 0.171875 0.640625 0.421875q0.21875 0.25 0.296875 0.640625q0.046875 0.234375 0.046875 0.859375l0 1.25q0 1.296875 0.0625 1.65625q0.0625 0.34375 0.234375 0.65625l-0.96875 0q-0.15625 -0.296875 -0.1875 -0.6875zm-0.078125 -2.078125q-0.515625 0.203125 -1.53125 0.34375q-0.578125 0.078125 -0.828125 0.1875q-0.234375 0.109375 -0.359375 0.3125q-0.125 0.1875 -0.125 0.4375q0 0.375 0.28125 0.625q0.28125 0.25 0.828125 0.25q0.53125 0 0.953125 -0.234375q0.421875 -0.234375 0.625 -0.65625q0.15625 -0.3125 0.15625 -0.9375l0 -0.328125zm2.3796234 2.765625l0 -5.53125l0.84375 0l0 0.84375q0.328125 -0.59375 0.59375 -0.78125q0.28125 -0.1875 0.609375 -0.1875q0.46875 0 0.953125 0.3125l-0.3125 0.859375q-0.34375 -0.203125 -0.6875 -0.203125q-0.3125 0 -0.5625 0.1875q-0.234375 0.1875 -0.34375 0.515625q-0.15625 0.5 -0.15625 1.09375l0 2.890625l-0.9375 0zm5.6110992 -0.84375l0.125 0.828125q-0.390625 0.09375 -0.703125 0.09375q-0.49998474 0 -0.78123474 -0.15625q-0.28125 -0.171875 -0.40625 -0.4375q-0.109375 -0.265625 -0.109375 -1.109375l0 -3.171875l-0.6875 0l0 -0.734375l0.6875 0l0 -1.359375l0.9375 -0.5625l0 1.921875l0.93748474 0l0 0.734375l-0.93748474 0l0 3.234375q0 0.390625 0.046875 0.515625q0.046875 0.109375 0.15625 0.1875q0.10935974 0.0625 0.32810974 0.0625q0.15625 0 0.40625 -0.046875zm0.9137726 -5.703125l0 -1.078125l0.9375 0l0 1.078125l-0.9375 0zm0 6.546875l0 -5.53125l0.9375 0l0 5.53125l-0.9375 0zm4.4143524 -0.84375l0.125 0.828125q-0.390625 0.09375 -0.703125 0.09375q-0.5 0 -0.78125 -0.15625q-0.28125 -0.171875 -0.40625 -0.4375q-0.109375 -0.265625 -0.109375 -1.109375l0 -3.171875l-0.6875 0l0 -0.734375l0.6875 0l0 -1.359375l0.9375 -0.5625l0 1.921875l0.9375 0l0 0.734375l-0.9375 0l0 3.234375q0 0.390625 0.046875 0.515625q0.046875 0.109375 0.15625 0.1875q0.109375 0.0625 0.328125 0.0625q0.15625 0 0.40625 -0.046875zm0.9137726 -5.703125l0 -1.078125l0.9375 0l0 1.078125l-0.9375 0zm0 6.546875l0 -5.53125l0.9375 0l0 5.53125l-0.9375 0zm2.0237274 -2.765625q0 -1.53125 0.84375 -2.265625q0.71875 -0.625 1.734375 -0.625q1.140625 0 1.859375 0.75q0.734375 0.75 0.734375 2.0625q0 1.0625 -0.328125 1.6875q-0.3125 0.609375 -0.921875 0.953125q-0.609375 0.328125 -1.34375 0.328125q-1.15625 0 -1.875 -0.734375q-0.703125 -0.75 -0.703125 -2.15625zm0.953125 0q0 1.0625 0.46875 1.59375q0.46875 0.53125 1.15625 0.53125q0.703125 0 1.15625 -0.53125q0.46875 -0.53125 0.46875 -1.625q0 -1.015625 -0.46875 -1.546875q-0.453125 -0.53125 -1.15625 -0.53125q-0.6875 0 -1.15625 0.53125q-0.46875 0.515625 -0.46875 1.578125zm5.3171234 2.765625l0 -5.53125l0.84375 0l0 0.796875q0.609375 -0.921875 1.75 -0.921875q0.5 0 0.921875 0.1875q0.421875 0.171875 0.625 0.46875q0.21875 0.296875 0.296875 0.6875q0.046875 0.265625 0.046875 0.921875l0 3.390625l-0.9375 0l0 -3.359375q0 -0.578125 -0.109375 -0.859375q-0.109375 -0.28125 -0.390625 -0.453125q-0.265625 -0.171875 -0.640625 -0.171875q-0.59375 0 -1.03125 0.390625q-0.4375 0.375 -0.4375 1.4375l0 3.015625l-0.9375 0zm5.9264984 -6.546875l0 -1.078125l0.9375 0l0 1.078125l-0.9375 0zm0 6.546875l0 -5.53125l0.9375 0l0 5.53125l-0.9375 0zm2.3674774 0l0 -5.53125l0.84375 0l0 0.796875q0.609375 -0.921875 1.75 -0.921875q0.5 0 0.921875 0.1875q0.421875 0.171875 0.625 0.46875q0.21875 0.296875 0.296875 0.6875q0.046875 0.265625 0.046875 0.921875l0 3.390625l-0.9375 0l0 -3.359375q0 -0.578125 -0.109375 -0.859375q-0.109375 -0.28125 -0.390625 -0.453125q-0.265625 -0.171875 -0.640625 -0.171875q-0.59375 0 -1.03125 0.390625q-0.4375 0.375 -0.4375 1.4375l0 3.015625l-0.9375 0zm5.7546234 0.453125l0.90625 0.140625q0.0625 0.421875 0.328125 0.609375q0.34375 0.265625 0.9375 0.265625q0.65625 0 1.0 -0.265625q0.359375 -0.25 0.484375 -0.71875q0.078125 -0.296875 0.078125 -1.203125q-0.625 0.71875 -1.53125 0.71875q-1.140625 0 -1.765625 -0.8125q-0.625 -0.828125 -0.625 -1.984375q0 -0.78125 0.28125 -1.453125q0.296875 -0.671875 0.828125 -1.03125q0.546875 -0.375 1.28125 -0.375q0.984375 0 1.609375 0.796875l0 -0.671875l0.875 0l0 4.78125q0 1.296875 -0.265625 1.828125q-0.265625 0.546875 -0.84375 0.859375q-0.5625 0.3125 -1.390625 0.3125q-0.984375 0 -1.59375 -0.453125q-0.609375 -0.4375 -0.59375 -1.34375zm0.78125 -3.3125q0 1.078125 0.421875 1.578125q0.4375 0.5 1.078125 0.5q0.65625 0 1.09375 -0.484375q0.4375 -0.5 0.4375 -1.5625q0 -1.015625 -0.453125 -1.53125q-0.453125 -0.515625 -1.09375 -0.515625q-0.609375 0 -1.046875 0.515625q-0.4375 0.5 -0.4375 1.5z" fill-rule="nonzero"/><path fill="#000000" d="m179.60844 257.52216l0 -0.8125q-0.65625 0.9375 -1.75 0.9375q-0.5 0 -0.921875 -0.1875q-0.421875 -0.1875 -0.625 -0.46875q-0.203125 -0.28125 -0.296875 -0.703125q-0.046875 -0.265625 -0.046875 -0.875l0 -3.421875l0.9375 0l0 3.0625q0 0.734375 0.046875 1.0q0.09375 0.359375 0.375 0.578125q0.296875 0.203125 0.703125 0.203125q0.421875 0 0.796875 -0.203125q0.375 -0.21875 0.515625 -0.59375q0.15625 -0.375 0.15625 -1.078125l0 -2.96875l0.9375 0l0 5.53125l-0.828125 0zm1.9264984 -1.65625l0.921875 -0.140625q0.078125 0.5625 0.4375 0.859375q0.359375 0.296875 1.0 0.296875q0.640625 0 0.953125 -0.265625q0.3125 -0.265625 0.3125 -0.625q0 -0.3125 -0.28125 -0.5q-0.1875 -0.125 -0.953125 -0.3125q-1.03125 -0.265625 -1.4375 -0.453125q-0.390625 -0.1875 -0.59375 -0.515625q-0.203125 -0.34375 -0.203125 -0.75q0 -0.359375 0.171875 -0.671875q0.171875 -0.328125 0.453125 -0.53125q0.21875 -0.15625 0.59375 -0.265625q0.390625 -0.125 0.8125 -0.125q0.65625 0 1.140625 0.1875q0.5 0.1875 0.734375 0.515625q0.234375 0.3125 0.3125 0.859375l-0.90625 0.125q-0.0625 -0.4375 -0.375 -0.671875q-0.296875 -0.234375 -0.828125 -0.234375q-0.65625 0 -0.9375 0.21875q-0.265625 0.203125 -0.265625 0.484375q0 0.1875 0.109375 0.328125q0.125 0.15625 0.359375 0.25q0.140625 0.0625 0.828125 0.25q1.0 0.265625 1.390625 0.4375q0.390625 0.15625 0.609375 0.484375q0.234375 0.3125 0.234375 0.796875q0 0.46875 -0.28125 0.890625q-0.265625 0.40625 -0.78125 0.640625q-0.515625 0.21875 -1.171875 0.21875q-1.078125 0 -1.640625 -0.4375q-0.5625 -0.453125 -0.71875 -1.34375zm5.703125 -4.890625l0 -1.078125l0.9375 0l0 1.078125l-0.9375 0zm0 6.546875l0 -5.53125l0.9375 0l0 5.53125l-0.9375 0zm2.3674774 0l0 -5.53125l0.84375 0l0 0.796875q0.609375 -0.921875 1.75 -0.921875q0.5 0 0.921875 0.1875q0.421875 0.171875 0.625 0.46875q0.21875 0.296875 0.296875 0.6875q0.046875 0.265625 0.046875 0.921875l0 3.390625l-0.9375 0l0 -3.359375q0 -0.578125 -0.109375 -0.859375q-0.109375 -0.28125 -0.390625 -0.453125q-0.265625 -0.171875 -0.640625 -0.171875q-0.59375 0 -1.03125 0.390625q-0.4375 0.375 -0.4375 1.4375l0 3.015625l-0.9375 0zm5.7546234 0.453125l0.90625 0.140625q0.0625 0.421875 0.328125 0.609375q0.34375 0.265625 0.9375 0.265625q0.65625 0 1.0 -0.265625q0.359375 -0.25 0.484375 -0.71875q0.078125 -0.296875 0.078125 -1.203125q-0.625 0.71875 -1.53125 0.71875q-1.140625 0 -1.765625 -0.8125q-0.625 -0.828125 -0.625 -1.984375q0 -0.78125 0.28125 -1.453125q0.296875 -0.671875 0.828125 -1.03125q0.546875 -0.375 1.28125 -0.375q0.984375 0 1.609375 0.796875l0 -0.671875l0.875 0l0 4.78125q0 1.296875 -0.265625 1.828125q-0.265625 0.546875 -0.84375 0.859375q-0.5625 0.3125 -1.390625 0.3125q-0.984375 0 -1.59375 -0.453125q-0.609375 -0.4375 -0.59375 -1.34375zm0.78125 -3.3125q0 1.078125 0.421875 1.578125q0.4375 0.5 1.078125 0.5q0.65625 0 1.09375 -0.484375q0.4375 -0.5 0.4375 -1.5625q0 -1.015625 -0.453125 -1.53125q-0.453125 -0.515625 -1.09375 -0.515625q-0.609375 0 -1.046875 0.515625q-0.4375 0.5 -0.4375 1.5zm11.887146 -2.046875l-0.671875 0.546875q-0.640625 -0.484375 -1.1875 -0.484375q-0.46875 0 -0.6875 0.25q-0.203125 0.234375 -0.203125 0.515625q0 0.375 0.3125 0.625q0.3125 0.234375 0.921875 0.234375q0.078125 0 0.25 -0.015625l0 0.78125q-0.15625 0 -0.25 0q-0.734375 0 -1.03125 0.296875q-0.28125 0.28125 -0.28125 0.640625q0 0.359375 0.28125 0.625q0.296875 0.25 0.703125 0.25q0.734375 0 1.375 -0.6875l0.671875 0.5625q-0.84375 0.890625 -2.078125 0.890625q-0.96875 0 -1.453125 -0.484375q-0.46875 -0.5 -0.46875 -1.15625q0 -0.953125 0.90625 -1.34375q-0.765625 -0.421875 -0.765625 -1.1875q0 -0.625 0.453125 -1.109375q0.453125 -0.5 1.390625 -0.5q1.078125 0 1.8125 0.75z" fill-rule="nonzero"/><path fill="#000000" d="m212.04475 260.9284l0 0.59375l-3.359375 0q-0.015625 -0.21875 0.0625 -0.4375q0.140625 -0.34375 0.421875 -0.671875q0.28125 -0.328125 0.8125 -0.765625q0.828125 -0.6875 1.125 -1.078125q0.296875 -0.40625 0.296875 -0.75q0 -0.375 -0.265625 -0.625q-0.265625 -0.265625 -0.703125 -0.265625q-0.453125 0 -0.71875 0.28125q-0.265625 0.265625 -0.28125 0.734375l-0.640625 -0.0625q0.078125 -0.71875 0.5 -1.09375q0.4375 -0.375 1.15625 -0.375q0.734375 0 1.15625 0.40625q0.4375 0.40625 0.4375 1.0q0 0.3125 -0.125 0.609375q-0.125 0.296875 -0.421875 0.625q-0.28125 0.3125 -0.96875 0.890625q-0.5625 0.46875 -0.71875 0.640625q-0.15625 0.171875 -0.265625 0.34375l2.5 0z" fill-rule="nonzero"/><path fill="#000000" d="m221.0061 253.03778l-5.03125 0l0 -0.875l5.03125 0l0 0.875zm0 2.3125l-5.03125 0l0 -0.875l5.03125 0l0 0.875zm7.527481 2.171875l-0.9375 0l0 -5.96875q-0.34375 0.328125 -0.890625 0.65625q-0.546875 0.3125 -0.984375 0.46875l0 -0.90625q0.796875 -0.359375 1.375 -0.890625q0.59375 -0.53125 0.828125 -1.015625l0.609375 0l0 7.65625z" fill-rule="nonzero"/><path fill="#cfe2f3" d="m142.22835 364.92258l117.16536 0l0 63.08661l-117.16536 0z" fill-rule="evenodd"/><path stroke="#000000" stroke-width="1.0" stroke-linejoin="round" stroke-linecap="butt" d="m142.22835 364.92258l117.16536 0l0 63.08661l-117.16536 0z" fill-rule="evenodd"/><path fill="#000000" d="m160.68936 388.089l1.65625 -0.140625q0.125 1.0 0.546875 1.640625q0.4375 0.640625 1.34375 1.046875q0.921875 0.390625 2.0625 0.390625q1.0 0 1.78125 -0.296875q0.78125 -0.296875 1.15625 -0.8125q0.375 -0.53125 0.375 -1.15625q0 -0.625 -0.375 -1.09375q-0.359375 -0.46875 -1.1875 -0.796875q-0.546875 -0.203125 -2.390625 -0.640625q-1.828125 -0.453125 -2.5625 -0.84375q-0.96875 -0.5 -1.4375 -1.234375q-0.46875 -0.75 -0.46875 -1.671875q0 -1.0 0.578125 -1.875q0.578125 -0.890625 1.671875 -1.34375q1.109375 -0.453125 2.453125 -0.453125q1.484375 0 2.609375 0.484375q1.140625 0.46875 1.75 1.40625q0.609375 0.921875 0.65625 2.09375l-1.6875 0.125q-0.140625 -1.265625 -0.9375 -1.90625q-0.78125 -0.65625 -2.3125 -0.65625q-1.609375 0 -2.34375 0.59375q-0.734375 0.59375 -0.734375 1.421875q0 0.71875 0.53125 1.171875q0.5 0.46875 2.65625 0.96875q2.15625 0.484375 2.953125 0.84375q1.171875 0.53125 1.71875 1.359375q0.5625 0.828125 0.5625 1.90625q0 1.0625 -0.609375 2.015625q-0.609375 0.9375 -1.75 1.46875q-1.140625 0.515625 -2.578125 0.515625q-1.8125 0 -3.046875 -0.53125q-1.21875 -0.53125 -1.921875 -1.59375q-0.6875 -1.0625 -0.71875 -2.40625zm19.459198 1.1875l1.6875 0.203125q-0.40625 1.484375 -1.484375 2.3125q-1.078125 0.8125 -2.765625 0.8125q-2.125 0 -3.375 -1.296875q-1.234375 -1.3125 -1.234375 -3.671875q0 -2.453125 1.25 -3.796875q1.265625 -1.34375 3.265625 -1.34375q1.9375 0 3.15625 1.328125q1.234375 1.3125 1.234375 3.703125q0 0.15625 0 0.4375l-7.21875 0q0.09375 1.59375 0.90625 2.453125q0.8125 0.84375 2.015625 0.84375q0.90625 0 1.546875 -0.46875q0.640625 -0.484375 1.015625 -1.515625zm-5.390625 -2.65625l5.40625 0q-0.109375 -1.21875 -0.625 -1.828125q-0.78125 -0.953125 -2.03125 -0.953125q-1.125 0 -1.90625 0.765625q-0.765625 0.75 -0.84375 2.015625zm8.485092 2.875l1.625 -0.25q0.125 0.96875 0.75 1.5q0.625 0.515625 1.75 0.515625q1.125 0 1.671875 -0.453125q0.546875 -0.46875 0.546875 -1.09375q0 -0.546875 -0.484375 -0.875q-0.328125 -0.21875 -1.671875 -0.546875q-1.8125 -0.46875 -2.515625 -0.796875q-0.6875 -0.328125 -1.046875 -0.90625q-0.359375 -0.59375 -0.359375 -1.3125q0 -0.640625 0.296875 -1.1875q0.296875 -0.5625 0.8125 -0.921875q0.375 -0.28125 1.03125 -0.46875q0.671875 -0.203125 1.421875 -0.203125q1.140625 0 2.0 0.328125q0.859375 0.328125 1.265625 0.890625q0.421875 0.5625 0.578125 1.5l-1.609375 0.21875q-0.109375 -0.75 -0.640625 -1.171875q-0.515625 -0.421875 -1.46875 -0.421875q-1.140625 0 -1.625 0.375q-0.46875 0.375 -0.46875 0.875q0 0.3125 0.1875 0.578125q0.203125 0.265625 0.640625 0.4375q0.234375 0.09375 1.4375 0.421875q1.75 0.453125 2.4375 0.75q0.6875 0.296875 1.078125 0.859375q0.390625 0.5625 0.390625 1.40625q0 0.828125 -0.484375 1.546875q-0.46875 0.71875 -1.375 1.125q-0.90625 0.390625 -2.046875 0.390625q-1.875 0 -2.875 -0.78125q-0.984375 -0.78125 -1.25 -2.328125zm9.328125 0l1.625 -0.25q0.125 0.96875 0.75 1.5q0.625 0.515625 1.75 0.515625q1.125 0 1.671875 -0.453125q0.546875 -0.46875 0.546875 -1.09375q0 -0.546875 -0.484375 -0.875q-0.328125 -0.21875 -1.671875 -0.546875q-1.8125 -0.46875 -2.515625 -0.796875q-0.6875 -0.328125 -1.046875 -0.90625q-0.359375 -0.59375 -0.359375 -1.3125q0 -0.640625 0.296875 -1.1875q0.296875 -0.5625 0.8125 -0.921875q0.375 -0.28125 1.03125 -0.46875q0.671875 -0.203125 1.421875 -0.203125q1.140625 0 2.0 0.328125q0.859375 0.328125 1.265625 0.890625q0.421875 0.5625 0.578125 1.5l-1.609375 0.21875q-0.109375 -0.75 -0.640625 -1.171875q-0.515625 -0.421875 -1.46875 -0.421875q-1.140625 0 -1.625 0.375q-0.46875 0.375 -0.46875 0.875q0 0.3125 0.1875 0.578125q0.203125 0.265625 0.640625 0.4375q0.234375 0.09375 1.4375 0.421875q1.75 0.453125 2.4375 0.75q0.6875 0.296875 1.078125 0.859375q0.390625 0.5625 0.390625 1.40625q0 0.828125 -0.484375 1.546875q-0.46875 0.71875 -1.375 1.125q-0.90625 0.390625 -2.046875 0.390625q-1.875 0 -2.875 -0.78125q-0.984375 -0.78125 -1.25 -2.328125zm9.984375 -8.578125l0 -1.890625l1.640625 0l0 1.890625l-1.640625 0zm0 11.46875l0 -9.671875l1.640625 0l0 9.671875l-1.640625 0zm3.5354462 -4.84375q0 -2.6875 1.484375 -3.96875q1.25 -1.078125 3.046875 -1.078125q2.0 0 3.265625 1.3125q1.265625 1.296875 1.265625 3.609375q0 1.859375 -0.5625 2.9375q-0.5625 1.0625 -1.640625 1.65625q-1.0625 0.59375 -2.328125 0.59375q-2.03125 0 -3.28125 -1.296875q-1.25 -1.3125 -1.25 -3.765625zm1.6875 0q0 1.859375 0.796875 2.796875q0.8125 0.921875 2.046875 0.921875q1.21875 0 2.03125 -0.921875q0.8125 -0.9375 0.8125 -2.84375q0 -1.796875 -0.8125 -2.71875q-0.8125 -0.921875 -2.03125 -0.921875q-1.234375 0 -2.046875 0.921875q-0.796875 0.90625 -0.796875 2.765625zm9.297592 4.84375l0 -9.671875l1.46875 0l0 1.375q1.0625 -1.59375 3.078125 -1.59375q0.875 0 1.609375 0.3125q0.734375 0.3125 1.09375 0.828125q0.375 0.5 0.515625 1.203125q0.09375 0.453125 0.09375 1.59375l0 5.953125l-1.640625 0l0 -5.890625q0 -1.0 -0.203125 -1.484375q-0.1875 -0.5 -0.671875 -0.796875q-0.484375 -0.296875 -1.140625 -0.296875q-1.046875 0 -1.8125 0.671875q-0.75 0.65625 -0.75 2.515625l0 5.28125l-1.640625 0zm21.277771 0l-1.640625 0l0 -10.453125q-0.59375 0.5625 -1.5625 1.140625q-0.953125 0.5625 -1.71875 0.84375l0 -1.59375q1.375 -0.640625 2.40625 -1.5625q1.03125 -0.921875 1.453125 -1.78125l1.0625 0l0 13.40625z" fill-rule="nonzero"/><path fill="#000000" d="m184.92226 405.80774l-1.171875 0.9375q-1.125 -0.84375 -2.09375 -0.84375q-0.796875 0 -1.171875 0.4375q-0.375 0.421875 -0.375 0.921875q0 0.625 0.546875 1.0625q0.546875 0.421875 1.609375 0.421875q0.140625 0 0.453125 -0.015625l0 1.375q-0.28125 -0.015625 -0.4375 -0.015625q-1.296875 0 -1.8125 0.515625q-0.5 0.5 -0.5 1.125q0 0.640625 0.5 1.09375q0.515625 0.4375 1.21875 0.4375q1.296875 0 2.40625 -1.203125l1.171875 1.0q-1.453125 1.546875 -3.625 1.546875q-1.703125 0 -2.546875 -0.859375q-0.828125 -0.875 -0.828125 -2.015625q0 -1.65625 1.609375 -2.34375q-1.34375 -0.75 -1.34375 -2.09375q0 -1.078125 0.78125 -1.9375q0.796875 -0.859375 2.4375 -0.859375q1.890625 0 3.171875 1.3125z" fill-rule="nonzero"/><path fill="#000000" d="m190.33298 421.38586l-1.09375 0l0 -6.96875q-0.40625 0.375 -1.046875 0.75q-0.640625 0.375 -1.140625 0.578125l0 -1.0625q0.90625 -0.4375 1.59375 -1.046875q0.6875 -0.609375 0.96875 -1.1875l0.71875 0l0 8.9375z" fill-rule="nonzero"/><path fill="#000000" d="m207.65207 406.5265l-8.828125 0l0 -1.515625l8.828125 0l0 1.515625zm0 4.0625l-8.828125 0l0 -1.53125l8.828125 0l0 1.53125zm15.609512 2.21875l0 1.578125l-8.828125 0q-0.015625 -0.59375 0.1875 -1.140625q0.34375 -0.90625 1.078125 -1.78125q0.75 -0.875 2.15625 -2.015625q2.171875 -1.78125 2.9375 -2.828125q0.765625 -1.046875 0.765625 -1.96875q0 -0.984375 -0.703125 -1.640625q-0.6875 -0.671875 -1.8125 -0.671875q-1.1875 0 -1.90625 0.71875q-0.703125 0.703125 -0.703125 1.953125l-1.6875 -0.171875q0.171875 -1.890625 1.296875 -2.875q1.140625 -0.984375 3.03125 -0.984375q1.921875 0 3.046875 1.0625q1.125 1.0625 1.125 2.640625q0 0.796875 -0.328125 1.578125q-0.328125 0.78125 -1.09375 1.640625q-0.75 0.84375 -2.53125 2.34375q-1.46875 1.234375 -1.890625 1.6875q-0.421875 0.4375 -0.6875 0.875l6.546875 0z" fill-rule="nonzero"/></g></svg>